<?xml version="1.0" standalone="no"?>
<!DOCTYPE svg PUBLIC "-//W3C//DTD SVG 1.1//EN" "http://www.w3.org/Graphics/SVG/1.1/DTD/svg11.dtd" >
<svg xmlns="http://www.w3.org/2000/svg">
<metadata></metadata>
<defs>
<font id="so_lonelyregular" horiz-adv-x="221" >
<font-face units-per-em="2048" ascent="1536" descent="-512" />
<missing-glyph horiz-adv-x="921" />
<glyph horiz-adv-x="0" />
<glyph horiz-adv-x="682" />
<glyph unicode=" "  horiz-adv-x="921" />
<glyph unicode="&#x09;" horiz-adv-x="921" />
<glyph unicode="&#xa0;" horiz-adv-x="921" />
<glyph unicode="," horiz-adv-x="153" d="M53 47l19 47q12 20 15 28.5t7 11.5t13.5 7t31.5 21q25 -31 29 -46.5t-3 -25.5t-25 -23t-38 -42q-4 0 -9 -16.5t-11 -35t-11 -34t-8 -13.5z" />
<glyph unicode="." horiz-adv-x="182" d="M54 44q-5 15 18 50q12 20 15 28.5t7 11.5t13.5 7t31.5 21q25 -31 29 -46.5t-3 -25.5t-25 -23t-38 -42q-43 4 -48 19z" />
<glyph unicode=":" d="M54 44q-5 15 18 50q12 20 15 28.5t7 11.5t13.5 7t31.5 21q25 -31 29 -46.5t-3 -25.5t-25 -23t-38 -42q-43 4 -48 19zM54 707.5q-5 15.5 18 50.5q12 20 15 28.5t7 11.5t13.5 7t31.5 20q25 -31 29 -46t-3 -25.5t-25 -23.5t-38 -42q-43 4 -48 19.5z" />
<glyph unicode=";" d="M53 47l19 47q12 20 15 28.5t7 11.5t13.5 7t31.5 21q25 -31 29 -46.5t-3 -25.5t-25 -23t-38 -42q-4 0 -9 -16.5t-11 -35t-11 -34t-8 -13.5zM54 707.5q-5 15.5 18 50.5q12 20 15 28.5t7 11.5t13.5 7t31.5 20q25 -31 29 -46t-3 -25.5t-25 -23.5t-38 -42q-43 4 -48 19.5z" />
<glyph unicode="A" horiz-adv-x="1654" d="M51 362l25 5q0 18 13 60t30.5 87t35 83t27.5 48q14 16 23.5 28.5t17.5 24t17.5 25.5t23.5 33q12 16 19.5 34.5t15.5 28.5q16 20 29.5 28.5t5.5 26.5q20 2 25.5 10.5t10.5 18.5t13 19.5t35 13.5q2 25 18.5 45t40 38.5t47 35t39.5 30.5q14 12 20.5 19.5t12.5 13.5 t15.5 13.5t29.5 19.5q4 2 15.5 11t24.5 18.5t23 17.5l11 8q39 35 80 57.5t84 41t89 34t97 33.5q98 37 178 52.5t154 15.5h33.5t50 -2t53.5 -6.5t43 -10.5q16 -8 46 -22.5t34 -24.5q2 -4 2 -15t-4 -22.5t-13.5 -20.5t-25.5 -9q-8 0 -22.5 9t-33 18t-40 16.5t-39.5 3.5l-23 16 q-41 0 -68.5 8t-46.5 6l-227 -30l-18 -6q-17 -7 -38.5 -15t-40 -15t-20.5 -7q-23 -6 -55.5 -22.5t-48.5 -24.5q-37 -18 -56.5 -23.5t-56.5 -23.5q-16 -10 -26.5 -19.5t-19.5 -19t-21.5 -15.5t-32.5 -8l8 -14l-6 8l-164 -133l-16 -23l-58 -55l-8 6q4 -10 -5 -24.5t-22.5 -30 t-28.5 -29.5t-24 -26q-10 -16 -19 -28.5t-18.5 -25t-18.5 -26l-21 -31.5q-23 -37 -42.5 -66.5t-35 -59.5t-27.5 -61.5t-20 -72.5q-10 -49 -14 -117q-1 -10 0 -19q0 -57 18 -109q20 -62 71.5 -105t147.5 -43h53q14 0 21.5 2t16.5 5t22.5 5t37.5 2l170 70l-2 6h39l224 172 q-2 6 10 19.5t30.5 28.5t38 31.5t31.5 26.5q29 29 42 42.5t19.5 22.5t11.5 23.5t17 46.5q2 8 14.5 30t24.5 44.5t23.5 42t15.5 23.5q6 6 18.5 27.5t27.5 44t31.5 41t26.5 18.5q6 31 30 59.5t50.5 53t47 43t24.5 28.5h23q3 -14 3 -28q-1 -37 -21 -68q-28 -43 -62 -96 q-12 -18 -34 -43t-45.5 -51.5t-42 -48t-24.5 -34.5q-10 -20 -27.5 -40.5t-38 -42t-38 -44t-25.5 -47.5q-16 -41 -28.5 -101t-12.5 -95v-6q0 -49 12.5 -96.5t39 -84t69.5 -59.5t103 -23q41 0 90 15.5t97 41t90 60.5t71 76l28 -8v-12q-10 -4 -22 -17.5t-25.5 -31t-26 -33 t-22.5 -21.5q-16 -8 -51 -29.5t-49 -44.5q-29 0 -61.5 -15t-61.5 -26q-16 -4 -49 -8t-49 -4q-2 0 -11.5 1t-21.5 2t-23.5 2t-17.5 3q-18 4 -46 16.5t-48 14.5q4 8 -2.5 16.5t-15.5 19.5t-19 27.5t-17 40.5q-4 23 -11 59t-3 62q0 14 3 20.5t5 11.5t3 10t1 16v21t2 22 q4 29 11.5 51t21.5 47l-67 -33l-56 -63l-47 -47l-6 6l8 -15l-137 -98l-8 6l8 -12q-12 -2 -40 -16.5t-59.5 -32t-62.5 -33.5t-45 -22q-41 -16 -96 -38t-115 -26q-23 -2 -53.5 -2t-61 4t-58 12.5t-42.5 20.5q-16 14 -25.5 20t-17.5 12.5t-14 16.5t-12 31q-8 23 -20.5 48 t-12.5 48v8l-6 137zM1245 647q12 8 39 41t55.5 70t50 69.5t21.5 38.5l-4 8q-2 4 -2 7q-10 -6 -34.5 -36t-52.5 -68t-49.5 -75t-23.5 -55z" />
<glyph unicode="B" horiz-adv-x="1718" d="M29 -35q8 18 19 53t24 70q2 10 5 27.5l6 35t9 30t19 12.5q4 0 11 -7.5t11 -11.5q14 14 40 50t52.5 75t49 74t32.5 51q18 29 44 55.5t50 67.5q12 23 41 55.5t47 52.5q51 55 94.5 119t100.5 121q14 14 45 47t64.5 67.5t65.5 61.5t48 29l-8 14l6 -4l25 35q8 0 28.5 14.5 t45 30.5t46 32.5t33.5 22.5q6 4 18.5 12.5t25 15.5t22.5 13t12 6q18 4 25.5 7.5t12.5 7.5t11.5 9t22.5 15q31 14 73 29.5t88 29t91 22.5t84 11l141 9q8 -6 24.5 -11.5t35 -10.5t35 -9t26.5 -8q23 -10 51.5 -31t44.5 -39q45 -47 55 -107q4 -25 3 -49q0 -33 -7 -63 q-6 -23 -19 -51.5t-31.5 -58t-39 -56.5t-39.5 -43q-10 -10 -41.5 -34.5t-65.5 -52.5t-61.5 -50.5t-27.5 -26.5t9 -19.5t11 -19.5q4 -14 4 -18t11 -17q0 -35 2 -51t2 -26.5t-3 -21.5t-14 -36q-4 -10 -5 -16t-2 -12.5t-3 -13.5t-8 -21q-8 -12 -15.5 -20.5t-17.5 -26.5 q-8 -14 -29.5 -44t-47 -61t-51.5 -56.5t-40 -31.5q8 -12 49 2.5t89 39t93.5 51t61.5 36.5q8 -16 -14.5 -37.5t-61.5 -43t-87 -43t-93 -39t-80 -30t-45 -16.5q-33 -10 -54.5 -26.5t-43.5 -28.5q-33 -16 -53.5 -25.5t-47.5 -17.5q-47 -16 -100 -28.5t-102 -16.5h-29 q-2 0 -24.5 5t-50 13.5t-53.5 17.5t-36 17q-33 27 -67.5 45.5t-69.5 59.5q-20 23 -34.5 38t-24 30.5t-13.5 33.5t-6 47q-4 47 -9 89q-1 6 -1 12q0 33 26 51q10 -14 22.5 -34t26 -39.5t29 -32.5t29.5 -15l-8 -15q8 0 20.5 -8t26.5 -17t26.5 -19.5t18.5 -16.5 q25 -18 47.5 -24.5t54.5 -22.5q47 -20 89 -34.5t100 -18.5q12 0 41.5 -3t65.5 -4q18 -1 36 -1l36 1q36 1 58 7q10 4 40 11t44 13q23 12 37.5 35t46.5 27q10 39 36 61.5t53.5 54t48 85t20.5 153.5q2 2 4 6l4 8q-20 12 -22 32t-10 33t-34 15h-5q-26 0 -87 -20 q-27 -8 -58.5 -18.5t-64 -18.5t-63.5 -13.5t-55 -3.5l-158 15l-6 37v10q0 31 27.5 56.5t67.5 44t84 29.5t75 17q45 10 75.5 13.5t57.5 -2.5q18 -2 43 -8.5t47.5 -15.5t41 -20.5t22.5 -23.5q47 4 82.5 35t80.5 55q14 8 31 23.5t31 35t26.5 40t22.5 38.5q25 41 38 91 q5 21 5 42q0 30 -10 60q-6 18 -19.5 40.5t-30 42t-38 32t-45.5 12.5v16q-35 4 -77 16.5t-75 12.5q-61 0 -132 -3t-118 -18q-10 -4 -40.5 -15t-63.5 -23.5t-60.5 -21.5t-29.5 -9q-4 -12 -20.5 -24.5t-40 -23t-48 -22.5t-43.5 -24q-31 -25 -70.5 -60t-70.5 -61 q-37 -35 -68.5 -60.5t-62.5 -68.5q-10 -14 -26.5 -30.5t-34 -35t-34 -37t-28.5 -34.5q-6 -10 -24.5 -30t-38 -43.5t-34 -44t-10.5 -30.5h-20q4 -14 -16.5 -37.5t-36.5 -46.5q-10 -18 -30.5 -41.5t-37.5 -25.5q2 -8 -19.5 -44t-51 -80t-59.5 -86t-44 -61q-16 -23 -42 -64.5 t-51.5 -83.5t-51 -74t-41.5 -34zM584 309q2 -16 11 -39.5t21.5 -47t26.5 -42t25 -24.5q23 -16 47 -34t45 -28q27 -14 52.5 -22.5t49.5 -24.5q25 0 41.5 -2t31.5 -4t31 -4q8 -1 19 -1t23 1q20 2 54 7t54 17h31l84 41l-98 -2l-62 2l-29 -2q-8 -1 -18 -1q-38 -1 -88 13 q-64 16 -127.5 46t-118.5 69t-84 82h-22zM1142 704q7 -22 87 -40l24 16q20 -15 48 -15q6 0 13 1q36 4 74.5 17t76.5 27.5t67 14.5q-6 20 -26.5 33.5t-46 20.5t-53.5 9.5t-48 2.5h-8q-43 0 -97.5 -13.5t-86.5 -31.5q-26 -15 -25 -33q0 -5 1 -9z" />
<glyph unicode="C" horiz-adv-x="1261" d="M59 276l9 43q6 37 9 65t7 52.5t11 53t24 69.5q4 12 20.5 42t35 61.5t35.5 58.5t28 37q6 4 14 17t17.5 26.5t16.5 27t11 17.5q12 18 37.5 42.5t44.5 47.5q6 8 32.5 33.5t57.5 54.5t58.5 51.5t35.5 22.5l-8 12q6 0 31.5 15.5t53.5 34t50.5 33.5t26.5 17q41 29 81 52.5 t87 46.5q25 10 39 9t37 17q14 10 37.5 15.5t39.5 11.5q12 4 37 13t50.5 18.5t47 17.5t27.5 10l152 23l10 -6q33 0 53.5 1t40 -1t43 -11.5t60.5 -27.5q39 -18 62.5 -49t35.5 -60.5t18 -51t13 -24.5l32 12q31 11 69 24.5t70.5 24.5t36.5 13q18 8 33 6t21 -8q3 -3 3 -7 q0 -3 -2 -8q-5 -9 -30 -18q-8 -2 -23.5 -7t-32 -9t-29.5 -6t-15 0v-23l-23 15l-117 -45q8 -20 -5 -58.5t-37.5 -83.5t-57.5 -93t-65.5 -87t-59 -64.5t-41.5 -25.5q2 -10 -25.5 -39t-66.5 -60.5t-77 -60t-52 -39.5q-39 -23 -62.5 -40t-58.5 -35q-29 -12 -43 -19.5t-27.5 -8.5 t-30 0t-46.5 3v53q0 39 33.5 93.5t79.5 109.5t93.5 103t75.5 77q23 23 76 67t114.5 88t121 76.5t94.5 36.5l-2 29q2 12 -5.5 32.5t-20.5 40t-30.5 35t-37.5 17.5l6 16q-16 2 -20.5 4.5t-6.5 4.5l-4 4t-10 6q-12 2 -12.5 -2t-20.5 6q-27 12 -38 16t-36 4q-4 0 -15 -3t-22 -3 q-4 0 -17 3t-19 3l-119 -16q-18 -12 -65.5 -17t-88.5 -22q-27 -10 -65.5 -23.5t-67.5 -25.5q-18 -8 -62 -33.5t-90.5 -54.5t-84 -51.5t-44.5 -22.5l7 -12q-23 -2 -65 -38t-88 -81t-85 -88t-51 -61q-18 -27 -46 -68t-53.5 -86t-47 -88t-27.5 -74q-8 -43 -16 -92 q-8 -44 -8 -87v-10q1 -48 16.5 -93t52.5 -78t80 -52.5t89 -30.5t93 -14.5t90 -3.5q2 0 13.5 -4t21.5 -4q39 0 89 6.5t103.5 17.5t103.5 27.5t91 36.5q18 10 41.5 19.5t46.5 19.5q31 12 46 19.5t40 17.5q20 8 43 21.5t45.5 25.5t46 21.5t43.5 11.5l-2 -21q-2 0 -22.5 -10 t-51 -26.5t-67.5 -36t-72 -36.5t-63.5 -31.5t-42.5 -18.5q-47 -14 -90 -32.5t-86 -29.5q-18 -4 -44 -9t-51.5 -11t-48 -12.5t-31.5 -12.5l-186 -12l-6 -4l-37 4h-59l-9 -4q-59 0 -100 18.5t-70.5 41t-48 41t-32.5 20.5q-4 27 -13.5 31t-13.5 26q-4 23 -5 29t-11 22l4 31z M989 608l10 -88q59 0 110.5 26.5t92.5 59.5t74 61.5t55 30.5q2 16 8.5 23.5t15.5 11.5t19 10.5t21 22.5q8 14 18 21.5t18.5 13.5t12.5 12t0 18h20q-4 8 7.5 24.5t28 36t32.5 38t22 31.5q6 8 20 37q14 28 26 58q14 36 14 59q0 20 -17 20h-8l-17 -11q-18 -12 -39.5 -25.5 t-43 -26.5t-29.5 -17q-16 -6 -33.5 -20.5t-36 -28t-36 -24.5t-31.5 -11l8 -15q-14 0 -42.5 -21.5t-58.5 -48t-55.5 -52t-35.5 -37.5q-4 -4 -10.5 -11.5t-12.5 -17.5q-8 -10 -16 -23q-18 -14 -21.5 -17t-2.5 -3t1 -3t-12 -15q-29 -31 -39 -56.5t-37 -42.5z" />
<glyph unicode="D" horiz-adv-x="1927" d="M25 -47q0 29 8 50.5t17 42t17.5 39.5t10.5 44h22q-4 10 9.5 34.5t33 53.5t42 55.5t36.5 40.5q18 20 35.5 52t34.5 47q35 25 47 39t39 36q18 16 41.5 43t46.5 37q10 4 37.5 24.5t50.5 37.5q4 2 13 13t19.5 25.5t21.5 29t22 24.5q6 6 14 17.5t16.5 23.5t13.5 23.5t3 17.5 q12 0 29.5 17.5t34 40t31.5 46t26 35.5q12 16 32.5 36.5t39 42t30.5 40t6 33.5q25 2 34 12t14 21.5t9.5 18.5t18.5 1l-6 6l145 156q2 6 14.5 23.5t28 35.5t32.5 32.5t34 14.5q2 -2 6 -4l8 -4q-6 -10 -22.5 -24.5t-31.5 -29t-25.5 -28.5t-6.5 -25q-10 0 -33.5 -24.5 t-52.5 -57t-56.5 -64.5t-43.5 -50q-29 -35 -45.5 -55.5t-40.5 -49.5q-8 -10 -22.5 -26.5t-28 -33.5t-22.5 -31.5t-5 -20.5l-37 -25l4 -8h-20q-2 -12 -17.5 -34.5t-35 -46t-40 -43t-30.5 -28.5l2 -22l119 20q33 -23 49 -40t23 -35.5t10.5 -43t9.5 -63.5q8 -51 15 -101 t20 -104q10 -51 27.5 -87t33.5 -76q8 -23 27.5 -42.5t46 -33t56.5 -21.5t58 -8q43 0 76 4t86 21q10 4 34 15t48.5 26.5t44 32t19.5 28.5q0 2 -19.5 17.5t-45 36t-50.5 39t-33 24.5q0 20 -9 41.5t-21.5 45t-24.5 50.5t-16 59q-3 37 -17 87q-10 38 -11 82q0 13 1 26v59 q0 43 1 81t5 76t12.5 81t24.5 96q25 92 65.5 166t118.5 147q35 34 76 46q28 8 55 8l27 -2q41 -6 79 -32t68 -71q47 -68 72 -171q18 -76 18 -149q0 -26 -2 -52v-31q-16 -193 -67 -347.5t-156 -295.5l-53 -68q27 -19 70 -27q34 -6 70 -6h20q31 0 52 7.5t39.5 15.5t37 15 t41.5 10l-11 12l41 16l17 -18q-29 -12 -54.5 -34t-48.5 -28q-23 -4 -60.5 -16t-61.5 -16q-20 -4 -50 -6.5t-62 -2.5t-61.5 3.5t-48.5 11.5q-53 -47 -103 -79t-103.5 -49.5t-113.5 -21.5q-17 -1 -34 -1q-44 0 -94 7q-29 4 -55.5 19.5t-49 36t-39 44t-24.5 46.5 q-6 16 -17.5 44.5t-21.5 61.5t-18.5 63.5t-8.5 51.5q0 20 -2 48t-4 53.5t-6 47t-6 33.5q-8 31 -13.5 49.5t-16.5 27.5t-33.5 12t-61.5 3q-35 -20 -59.5 -39.5t-40.5 -52.5q-10 -12 -35 -43t-55.5 -68.5t-63.5 -79.5t-59.5 -78t-43 -62.5t-14.5 -34.5h-20l6 -4l-115 -158 l-73 -92l6 -6q-25 -1 -36 -11q-3 -2 -5 -3q-6 0 -6 22v8zM102 96q-1 -3 -1 -8q0 -16 14 -39l47 76l-6 4l16 4l174 234l92 120q-12 6 -23.5 1t-20.5 -13t-16 -18.5t-9 -14.5l-121 -139q-8 -10 -23.5 -25.5t-31 -33t-25.5 -34.5t-4 -30h-23q6 -16 -4 -27.5t-20.5 -25 t-14.5 -31.5zM1221 870q0 -39 2 -86t7 -95t14 -92t24 -77q12 -29 19 -48t15.5 -35.5t18.5 -34t29 -44.5q10 -12 27.5 -33.5t39 -41t44 -33.5t42.5 -14h23q2 8 15 29.5t29.5 45t30 42t15.5 22.5q4 4 14 23.5t22.5 44t23 46t12.5 29.5q29 88 52 168t23 160v68.5t-2 76.5t-9 77 t-19 69q-10 25 -17.5 41t-14.5 31.5t-15.5 29.5t-22.5 37q-6 10 -23.5 27.5t-38 34t-42 28.5t-33.5 12h-23q-41 0 -69.5 -17.5t-51 -42t-38 -52t-27.5 -47.5q-23 -35 -33 -64t-16 -54.5t-12.5 -51t-20.5 -56.5l22 -39q-29 -18 -32.5 -36.5t-3.5 -47.5z" />
<glyph unicode="E" horiz-adv-x="935" d="M41 231q2 59 31.5 111.5t64.5 110.5q8 12 34 41.5t55.5 60.5t58 55.5t41.5 24.5l-9 14l234 158q-43 0 -79 16.5t-59.5 45t-32.5 67.5q-4 18 -4 39q0 23 5 47q6 31 26.5 63.5t49 62.5t62.5 56.5t69 44.5q33 18 69.5 42t77.5 40q35 12 68 20.5t76 24.5q37 12 78.5 23.5 t83.5 18.5t81 11.5t70 4.5l90 4q2 -4 8 0t8 4l52 -86l-9 -2l-110 16q-8 0 -18.5 2t-20.5 2h-82l-74 -8v8q-53 -12 -96 -20q-39 -8 -74 -16.5t-49 -12.5t-48 -13t-52 -20q-10 -6 -25.5 -14t-32 -16.5t-33 -14.5t-24.5 -6l8 -16q-14 0 -31.5 -11.5t-34 -24.5t-31.5 -27.5 t-24 -22.5q-25 -23 -41 -56.5t-16 -72.5q0 -41 26.5 -72t65.5 -45q6 -4 30 -10t52 -11q33 -8 72 -12q12 8 53 25.5t86 36t83 34t44 17.5q20 6 63.5 14t84.5 19q18 2 40.5 7t42 7t34 -1t14.5 -18q0 -20 -36 -42.5t-92.5 -44t-126 -41t-136 -35t-123 -23.5t-84.5 -8l-215 -121 l6 -12q-10 0 -37 -19.5t-56.5 -44t-54 -48t-30.5 -34.5q-29 -41 -58.5 -79.5t-52.5 -98.5q-20 -46 -20 -94q1 -6 1 -14q4 -56 37 -101q41 -53 93.5 -62t111.5 -9h51q16 0 55.5 9t84.5 22.5t86 27.5t61 27q18 8 61.5 33.5t86.5 56t75.5 59.5t34.5 47q12 -4 26.5 7.5t31 29 t33 35.5t30.5 25l14 -9q-6 -25 -17 -39t-24.5 -25t-30 -21.5t-32.5 -26.5q-23 -25 -50.5 -54.5t-68.5 -33.5l6 -15l-94 -49l4 -10q-4 0 -30.5 -12.5t-58.5 -25.5t-60.5 -26.5t-36.5 -17.5q-35 -16 -84 -36.5t-88 -31.5q-12 -4 -36 -7t-48.5 -6t-46 -4t-27.5 -1q-20 2 -55 4 t-58 12q-23 12 -36 27.5t-43 19.5l-23 78zM797 866q57 14 96 21.5t73.5 16.5t74.5 24.5t100 44.5q-8 10 -29.5 10t-47.5 -5t-50.5 -13.5t-36.5 -12.5q-6 -4 -34 -15t-58.5 -23.5t-56 -21.5t-31.5 -9v-17z" />
<glyph unicode="F" horiz-adv-x="1449" d="M55 225.5q0 14.5 2 32.5t2 47q4 4 12.5 9t18.5 5q4 0 14.5 -10t23.5 -22.5t30.5 -22.5t36.5 -12l-9 -14l30 -14q30 -15 70 -33.5t78.5 -36t59.5 -23.5q33 -10 58.5 -16t49 -11.5t48 -8.5t55.5 -7l106 -14l62 2q10 0 27.5 5t35 12t31.5 13.5t18 4.5l-8 -23l97 8 q6 -1 13 -1q27 1 78 13q64 16 134.5 39t134 48.5t88.5 42.5h33q-6 -16 -13.5 -23.5t-18.5 -13.5t-27.5 -11.5t-43.5 -13.5q-33 -10 -69.5 -25.5t-69.5 -23.5q-37 -10 -67.5 -20.5t-60.5 -20.5t-62.5 -18.5t-71.5 -14.5q-37 -4 -67.5 -8t-65.5 -10q-29 -4 -40 -6t-19.5 -5.5 t-20.5 -9.5t-39 -18q-59 -23 -128 -43.5t-122 -20.5q-4 0 -25.5 2.5t-46 5.5t-46 6t-27.5 5q-29 14 -39 18t-31 13q-35 10 -43 21t-28 26q-12 6 -31 22.5t-37.5 35.5t-33.5 38.5t-21 32.5q-8 23 -11.5 38t-3.5 29.5zM82 215q4 -51 41 -96t89 -78t108.5 -52.5t97.5 -19.5 q20 0 32.5 -1t24.5 -2h13.5h17.5q18 1 51 5q12 2 30.5 8.5t40 14.5t42 14t35.5 6l-17 23q-13 -7 -39 -7q-13 0 -29 2q-48 5 -95.5 14t-86.5 20.5t-45 13.5q-16 4 -37.5 11t-44 14.5t-43 14.5t-32.5 11q-14 4 -36 17.5t-44.5 27.5t-42 26.5t-31.5 12.5zM530 952q-2 3 -2 8 q0 14 12 42q16 38 39 78t46.5 75t29.5 41q12 16 20.5 28.5t15.5 25t15.5 23.5t22.5 27q8 8 21.5 24.5t27 32t22.5 29t9 17.5l27 33l26 -4l-209 -279l6 -8q57 39 109.5 77t116.5 72q31 16 64.5 34t62.5 28q18 10 56 18t56 21l119 12q14 0 35.5 -4t44.5 -9t44.5 -11.5 t37.5 -14.5q14 -8 35.5 -21.5t41 -26.5t36 -26.5t22.5 -23.5q14 -31 41 -65t31 -83q2 -31 2 -44v-25.5t-1 -30.5t-1 -57q-4 -6 -11.5 -24.5t-16.5 -42.5t-16 -45.5t-12 -33.5q-4 -14 -15 -33.5t-22.5 -40t-21.5 -40t-12 -31.5q16 -4 22 -6t9.5 -3t8.5 0t19 1h29l90 -2l31 2 l225 2l6 -2l84 12q-2 -31 -13 -46.5t-27.5 -21.5t-37 -5t-41.5 1h-24l-373 6q-23 0 -32 3t-15 1t-11 -11t-20 -30q-16 -25 -36.5 -43t-41.5 -49q-10 -16 -37.5 -40.5t-54 -50t-46 -49.5t-15.5 -38l-37 -20l-100 -90l-7 6l9 -15l-111 -65q8 14 23.5 29.5t34 32t37 30.5 t30.5 27q16 16 30.5 23t36.5 30l60 59q33 33 58.5 63.5t46 61.5t41 61.5t44.5 67.5l-21 9t-26 3l-90 -2l-65 2l-129 5l-66 -5l-76 9h-28l-9 -4l-8 -5l-14 21l47 53l201 -14l6 2l57 -6l213 -4q16 0 24.5 -2t13.5 0t11 11t17 34q12 29 23.5 48t27.5 52q16 39 29.5 101.5 t17.5 107.5v9q0 51 -20 101q-22 54 -60.5 97t-89.5 69.5t-109 26.5q-12 10 -18 12t-22 4l-33 -2h-31l-6 2q-37 0 -80 -10t-89 -26.5t-89 -38t-80 -43.5q-31 -18 -51.5 -32.5t-36.5 -30t-32.5 -32t-41.5 -36.5q-23 -18 -38 -38t-27.5 -39.5t-23.5 -35.5t-28 -27z" />
<glyph unicode="G" horiz-adv-x="1024" d="M16 481q8 18 12.5 26.5t10.5 10.5t18.5 1t40.5 1q18 2 44 5t38 7q43 4 84 23.5t90 24.5q4 63 12.5 104t30.5 94q12 31 22.5 51.5t21 37t20.5 34t22 39.5q6 12 39 57t75 95.5t84 90.5t64 42l-8 16q23 4 54.5 26.5t44.5 39.5q23 23 50 35t56 24q16 8 45 20.5t61.5 23.5 t62.5 18.5t46 7.5h23q27 0 43 -9.5t25 -22.5t15.5 -29.5t14.5 -28.5q-2 -53 -16.5 -85t-36.5 -73q-6 -8 -21.5 -27.5t-32 -41t-27.5 -40t-7 -26.5q-16 -2 -30.5 -17.5t-29 -35t-32 -36t-37.5 -18.5l4 -6l-181 -149l3 -9q-16 -2 -60.5 -31.5t-100 -64.5t-111.5 -65.5 t-97 -32.5l-2 -19q8 -35 25.5 -54t38 -30.5t43 -19.5t38.5 -21l54 2l6 -2q55 0 103 14.5t92 37t86 50t87 56.5q23 14 65 47t85 73t81 79t54 63l25 -4v-24q-45 -66 -93.5 -124.5t-107.5 -113.5q-18 -18 -45 -54t-54.5 -73t-54 -65.5t-45.5 -30.5q6 -12 -25.5 -50t-71.5 -83 t-75 -90.5t-37 -69.5q39 0 74 11t65.5 26.5t58.5 32t52 28.5q23 10 57.5 37t55.5 43q18 16 28.5 30.5t19.5 23t20.5 11.5t33.5 -1q0 -16 -13 -36t-31.5 -36t-39 -27.5t-35.5 -13.5l7 -16l-170 -95l4 -10q-14 -2 -20.5 -6t-10.5 -8t-12.5 -9.5t-24.5 -9.5q-8 -2 -27.5 -6 t-31.5 -12q-16 -6 -37 -12.5t-41.5 -12.5t-36.5 -11t-23 -9q-18 -16 -43.5 -52t-52 -73t-50.5 -64.5t-38 -29.5q0 20 15.5 53t30 65.5t21.5 61.5t-7 39q-12 4 -45 4t-68 10q-29 10 -45.5 15.5t-52.5 23.5q-6 4 -17.5 15.5t-21 24.5t-17.5 25.5t-8 18.5q-6 25 -9 32t-3 11 v15.5v43.5q12 16 16 29.5t7 26t10.5 25t25.5 26.5q33 29 55.5 37t73.5 8q10 -8 29.5 -16.5t39 -20.5t35 -28.5t17.5 -40.5h21l24 -181l-8 -39h22q33 0 56.5 15.5t34.5 38.5q12 20 26.5 34.5t26.5 38.5q6 12 26.5 35t41 45.5t35 42t9.5 29.5h23q-4 10 12.5 34.5t40 53.5 t48 56.5t34.5 43.5q-8 4 -8 6v3h-2h-12q-2 0 -23.5 -12.5t-50.5 -27t-56.5 -28.5t-41.5 -16q-33 -10 -76 -26.5t-86 -23.5q-19 -2 -40 -2q-29 0 -64 5q-58 8 -89 22q-47 23 -67.5 51.5t-42.5 63.5q-10 -6 -38 -15.5t-60.5 -18.5t-60.5 -17.5t-38 -10.5q-18 -6 -40.5 -12 t-44 -8t-41 2t-32.5 20zM303 246v-11q0 -22 6 -45q8 -30 37 -59q23 -23 53.5 -35t59 -19t53.5 -12.5t37 -13.5q29 44 29 90q0 17 -4 33q-13 64 -50 117q-20 31 -50 45t-48 14q-31 0 -45 -5t-23.5 -11t-18 -11.5t-24.5 -7.5q2 -6 -4 -24.5t-8 -44.5zM439 651q0 -3 3 -8 q4 -6 17 -25q35 16 71.5 26.5t71.5 33.5q33 23 63.5 43t65.5 37q14 6 45 31.5t66 55t66.5 57.5t47.5 42q35 27 60.5 51.5t47 50t42 55t43.5 66.5q16 27 27 62q10 30 10 58v9q-2 33 -20.5 55.5t-61.5 22.5q-39 0 -71 -8t-61.5 -23.5t-61 -35t-70.5 -41.5q-16 -10 -53 -40 t-75 -66t-64.5 -66.5t-20.5 -40.5q-16 -2 -37 -25.5t-39.5 -52.5t-32.5 -57.5t-18 -38.5q-20 -49 -38 -89t-18 -98q0 -20 -2 -28q-3 -12 -3 -13z" />
<glyph unicode="H" horiz-adv-x="1400" d="M84 96q-3 24 -3 50q0 24 3 52q6 56 19.5 106t31 88t33.5 50l-10 33l98 100l-8 9l53 12q14 -25 25.5 -58.5t11.5 -68.5v-10q0 -43 -13.5 -80t-19.5 -53q-39 0 -44 19.5t1 47t10 58t-14 55.5l-43 -21l-88 -213q2 -10 6 -10v-16q0 -37 -3 -51.5t-2 -24.5t9 -25.5t31 -54.5 h45q2 0 17.5 5t33 11.5t31.5 11.5t16 5q4 23 17.5 39t29 31.5t30.5 30t26 32.5q4 6 14 23.5t22.5 38t23.5 38t18 23.5q8 8 36.5 48t60.5 87t58.5 89t32.5 56q10 23 17.5 46.5t23.5 42.5q14 20 18 26t5 8t2.5 7.5t11.5 25.5q6 12 17 29.5t25.5 36t26 37t17.5 34.5t16 38 t22.5 42.5t25 39t24.5 30.5q14 16 32.5 57t41.5 72l-19 20l-63 -34h-52l-10 63l10 14q16 2 50 17.5t71 35t68 40t41 34.5l26 -4q0 -53 -27.5 -95t-49.5 -79q-16 -25 -27.5 -46t-23 -40.5t-22.5 -40t-28 -43.5q-10 -14 -36.5 -60t-55.5 -98.5t-51.5 -98.5t-26.5 -62l82 22 q31 -4 53.5 -7t59.5 -36q25 -27 36 -63.5t19 -77.5q6 -35 5 -57.5t-1 -49.5q0 -10 -6 -30.5t-10 -42t-2 -41t14 -29.5q0 4 24.5 50t55.5 103.5t58.5 107.5t33.5 61q16 29 38 64.5t42 66.5q10 23 19.5 32t27.5 37q8 12 8 21.5v15.5t5.5 11.5t25.5 11.5q2 16 28.5 62 t61.5 100.5t69 103.5t52 70q8 8 21.5 29.5t29 45t30.5 46t30 36.5q8 8 26.5 29.5t37 45.5t30.5 43t10 26q25 4 37 24.5t35 42.5q10 12 21 19.5t20.5 12.5t13.5 11t0 17h27q2 23 30 46q27 22 60 34q20 7 38 7q12 -1 22 -3q26 -8 26 -48q0 -6 -19.5 -22t-45 -32.5t-50 -30 t-35.5 -15.5l11 -14q-31 -4 -56.5 -29t-49.5 -54.5t-48.5 -53t-52.5 -25.5q-6 -25 -22.5 -44.5t-35 -35.5t-36 -31.5t-25.5 -33.5q-6 -12 -18.5 -30t-28 -37t-31.5 -40.5t-27 -40.5q-2 -4 -9 -14.5t-16 -22.5t-17.5 -23.5t-12.5 -17.5q-10 -14 -14 -21t-7 -13.5t-7.5 -14.5 t-14.5 -24q-8 -14 -22.5 -33t-29.5 -39.5t-28.5 -40t-19.5 -33.5q-18 -39 -41 -79t-45.5 -80t-45 -77.5t-38.5 -72.5q-12 -20 -26.5 -43t-24.5 -43q-12 -16 -22.5 -31.5t-25.5 -38.5q-8 -16 -21 -36.5t-25.5 -41t-18.5 -39t0 -30.5l242 -35l67 20l27 -22l72 14v-53l-99 -12 l-67 6l-11 -6h-108v-11q-10 8 -30.5 14.5t-44 9.5t-46.5 2t-37 -3q-16 -4 -34.5 -23.5t-32 -43t-20.5 -46t-3 -34.5l-35 -3q-8 18 8.5 48t32 59t17.5 50.5t-31 25.5q-39 4 -68.5 18.5t-52.5 29.5t-41 27.5t-35 14.5l8 6l-38 31q2 8 -10.5 33.5t-16.5 48.5q-6 31 -5 45 t-16 30q-14 -10 -42.5 -51t-64.5 -96t-78 -117.5t-84 -115t-83 -86t-74 -33.5h-20q-39 0 -58.5 30.5t-25.5 77.5zM691 560q1 -30 1 -91q14 -20 24.5 -43t23 -42t32 -32.5t49.5 -15.5l17 -37q39 -2 55 -11q15 -10 25 -16q7 -5 15 -4h5q10 2 39 25q0 51 14.5 82t9.5 59l5 35 q-2 23 -3.5 36t-2.5 25.5t-4 27.5t-11 44q-4 12 -15.5 31.5t-25.5 39t-31.5 33t-31.5 13.5h-93q-4 -16 -15 -25.5t-25.5 -18.5t-26.5 -20.5t-21 -31.5q-9 -30 -9 -58v-5z" />
<glyph unicode="I" horiz-adv-x="1343" d="M4 307l29 82q51 -35 81.5 -59.5t60.5 -46t69 -41t106 -41.5q47 -16 87 -25.5t83 -14.5t92.5 -7t114.5 -2l133 118l88 105l-4 6l12 -8l41 88q12 2 22.5 12t20 24.5t18.5 30t19 27.5q29 33 34 53.5t5 50.5q0 47 4 106.5t13 119.5q2 20 9 51t14 63.5t16.5 62.5t17.5 48 q18 43 25.5 63.5t19.5 47.5q2 4 10 19t17.5 31.5t17.5 31t10 18.5l15 -8q2 18 15 40.5t31.5 41t38 31t33.5 12.5h23q10 -42 10 -74q0 -8 -1 -15q-3 -36 -13 -66t-23.5 -59.5t-23.5 -68.5q-6 -27 -19.5 -58.5t-29 -65.5t-33 -66.5t-29.5 -59.5q-18 -31 -28.5 -60.5 t-26.5 -56.5q-23 -34 -37 -62q-10 -19 -10 -48q0 -12 2 -25q2 -37 7 -66.5t12 -56t19.5 -55.5t28.5 -65q-8 -8 -11 -11.5t-15 -3.5h-39q-18 0 -29.5 22.5t-17.5 52.5t-7.5 56.5t3.5 32.5h-29q-8 -16 -32.5 -57t-55.5 -86t-61.5 -82t-51.5 -43q6 -12 -7 -26.5t-31.5 -30 t-36 -32t-21.5 -30.5q37 2 75 11.5t73.5 18.5t67.5 19t56 17q33 6 73 21t79 29.5t73.5 27t57.5 12.5l6 -21q-6 -2 -24.5 -10t-40 -18.5t-40 -18.5t-24.5 -10q-37 -14 -67.5 -26.5t-71.5 -22.5q-6 -2 -23.5 -7.5t-39 -13.5t-42 -15t-32.5 -11q-39 -16 -69 -21.5t-60 -13.5 q-35 -12 -64 -17.5t-56.5 -10.5t-54 -14t-55.5 -32q-23 -18 -56.5 -26.5t-69.5 -12.5t-68.5 -4h-53.5q-8 0 -27.5 3t-41 6t-39 7.5t-23.5 8.5q-8 4 -28.5 15t-42 23.5t-41 22.5t-23.5 10l6 8l-30 27l-19 12l-20 78q-8 29 -15.5 54.5t-9.5 29.5zM43 283q-5 -12 -5 -25 q0 -17 8 -36q15 -34 45 -65.5t68 -58t70 -39.5q47 -16 99 -22q35 -4 69 -4q17 0 34 1q50 3 94 15t77 35q-80 0 -147.5 19.5t-141.5 35.5q-25 6 -42 11.5t-31.5 12.5t-28.5 15t-35 19q-23 10 -39 21t-30.5 22.5t-29 21.5t-34.5 21zM1167 860l13 -59l-4 -6l-5 -37h23v16v5t3 2 t11 7l-8 13q8 4 17.5 19.5t16.5 33.5t13 35.5t13 28.5q6 10 10 28.5t8 38.5q2 6 15.5 25.5t17.5 36.5q12 33 18 72.5t17 56.5q4 6 10 24.5t11 39t8 40.5t3 33v8q0 10 -3 14t-13 17l-57 -39v-25q-16 -10 -39 -56t-42.5 -102.5t-33.5 -110.5t-14 -85l-5 -66z" />
<glyph unicode="J" horiz-adv-x="1079" d="M29 -569l4 174q12 4 20 16t14.5 27.5t11.5 31t11 27.5q4 6 15.5 21.5t22.5 33t19.5 33t4.5 23.5q10 2 38.5 27.5t61.5 59.5t61.5 64.5t38.5 40.5q8 6 23.5 16.5t32 21.5t33 20.5t26.5 15.5q37 18 60.5 37.5t54.5 40.5q-18 27 -29.5 41t-21 26.5t-18.5 28.5t-24 51 q-4 8 -8 34t-9 55.5t-9 54t-4 28.5l2 33l-2 21q0 57 15 132.5t43 152.5t63.5 147.5t78.5 117.5q20 23 43 59t43 58q35 35 59.5 57.5t61.5 51.5q29 20 65 42.5t73.5 41t73.5 31t67 12.5h53q25 0 40 -9.5t28.5 -19.5t27 -20.5t29.5 -12.5q-4 -12 5 -34.5t15 -41.5 q6 -23 5.5 -33t-0.5 -26v-13q0 -25 -6 -52q-7 -33 -9 -56q0 -20 -10 -57t-23.5 -76t-28 -73.5t-22.5 -53.5q-20 -39 -34.5 -70.5t-29 -63.5t-28.5 -65.5t-35 -76.5q-10 -23 -30.5 -54.5t-42 -65.5t-39 -68t-23.5 -58h29q2 0 14 4t26.5 9t30 9.5t23.5 6.5q25 4 54.5 11 t52.5 11q66 14 111 19q12 1 24 1q36 0 75 -10l-2 -22q-53 0 -123.5 -6t-121.5 -21q-18 -4 -58.5 -12t-78 -19.5t-65.5 -23.5t-22 -27h-24l8 -2l-115 -174q23 -14 53.5 -20t53.5 -9l33 3l22 -3q8 0 16.5 2.5t14.5 2.5t12 -6.5t10 -22.5l-32 -14l-68 -2l-29 2l-116 12 q-10 -14 -45 -57t-72 -91.5t-64.5 -88.5t-23.5 -50q-16 -2 -40 -26.5t-50.5 -57.5t-53 -63.5t-47.5 -44.5q-29 -18 -53 -46t-49 -51q-20 -18 -55 -39.5t-58 -37.5h-39l-20 -17zM96 -461q0 -6 1 -13t5 -22q4 -25 15.5 -30.5t7.5 -20.5q16 -2 23.5 -3t11.5 -2t10 -2t23 -1 l14 -8q12 16 31.5 22t35.5 17q10 8 24.5 24.5t27.5 28.5q6 8 20 22.5t30.5 30t33 26.5t26.5 11l-6 8l33 31l88 102l221 289l-8 6q-18 4 -31.5 8.5t-25 9.5t-23.5 12t-31 17q-29 14 -42 18.5t-22 0.5t-21.5 -14.5t-39.5 -22.5q-53 -29 -118.5 -75t-112.5 -87 q-23 -20 -46.5 -50t-45 -60.5t-38.5 -61.5t-26 -51q-10 -29 -22.5 -52.5t-16.5 -64.5q-2 -18 -4 -27.5t-2 -15.5zM520 535q0 -12 3 -35t8.5 -46.5t12.5 -47t15 -39.5q14 -35 24.5 -55.5t21.5 -37t23.5 -32t30.5 -41.5l289 123q8 14 23.5 39.5t32 53t31 55.5t22.5 46 q6 20 22.5 47t28.5 53q10 20 19.5 47t21.5 52q2 4 10 20.5t15.5 32.5t14.5 30l7 15q4 29 14.5 61.5t20.5 49.5q8 12 14 35.5t10.5 52t8.5 59.5t6 60l-2 30q2 14 2 31q0 25 -4 58q-6 53 -41 87q-20 20 -40 27.5t-41.5 7.5t-44.5 -3t-52 -3q-12 -8 -45 -23.5t-66 -32 t-56.5 -34.5t-17.5 -33q-23 -2 -64.5 -44t-85.5 -96t-80 -108.5t-44 -81.5q-23 -59 -36 -110t-20.5 -96t-9.5 -88t-2 -86zM696 178q0 -16 13.5 -28.5t30 -22.5t34 -18.5t27.5 -14.5l84 127l8 -4l-25 39q-8 -4 -35.5 -14.5t-58.5 -22.5t-54.5 -24.5t-23.5 -16.5z" />
<glyph unicode="K" horiz-adv-x="1325" d="M75 108q1 40 8 79.5t11 56.5q6 27 15.5 68.5t26 80.5t43 67.5t67.5 33.5q6 -23 12 -33t11 -19.5t8.5 -24t1.5 -44.5q0 -6 -3.5 -23.5t-6.5 -36t-7 -35t-8 -20.5q-20 -18 -27.5 -9t-7.5 29.5t4 44t4 29.5q0 20 1 32.5t-2 21t-12 13.5t-30 13q-16 -29 -26.5 -46 t-17.5 -33.5t-11 -37t-6 -57.5q-2 -31 -7 -55.5t-4 -46t12 -42t46 -42.5q59 2 93 33.5t73 70.5q6 6 24.5 27.5t38 46t36 44t16.5 23.5q12 23 29.5 37.5t29.5 36.5q8 14 19.5 33.5t31.5 40.5q4 6 17.5 24.5t28 42t26.5 44t18 30.5q29 47 49.5 76t40.5 70q4 10 18.5 34.5 t30 49t28.5 45t18 24.5q16 23 33.5 36t19.5 44q0 12 12 32.5t21 35.5q8 14 25.5 35.5t34.5 45t30.5 47t15.5 42.5l-18 -4l4 -11q-14 0 -29.5 -10t-29 -21.5t-25.5 -20.5t-21 -9q-10 0 -17 10t-7 21v24q0 6 15 18.5t35.5 27t41 27.5t31.5 21q14 10 29.5 26.5t30.5 33t32.5 29 t34.5 12.5l6 28l30 9q4 -12 0 -27.5t-12 -32t-18.5 -33t-18.5 -30.5q-16 -25 -36.5 -65t-32.5 -54q-18 -20 -38 -53t-40.5 -69t-41 -70.5t-38.5 -55.5q-51 -59 -84 -125.5t-80 -130.5q-2 -4 -13 -19.5t-23.5 -35t-25 -36.5t-14.5 -26q-4 -10 -16 -26.5t-23.5 -32.5 t-19.5 -31.5t-4 -23.5h-23q4 -10 -4 -28.5t-21.5 -36t-27.5 -30t-22 -12.5q4 -8 -14.5 -36.5t-51.5 -67.5t-73 -81t-78.5 -77t-71.5 -58.5t-49 -23.5h-23q-35 0 -47 31q-11 29 -11 64v7zM743 252v24q0 31 9.5 77t22.5 93.5t29.5 91.5t31.5 72q8 16 22 40t29.5 48.5t29 45 t19.5 32.5q8 14 29.5 32.5t43 38t39 38t17.5 30.5q35 2 53.5 12.5t46.5 10.5h37q20 0 45 -13.5t48.5 -32t46 -40t38.5 -37.5q29 -31 46.5 -48t35 -28.5t40 -19.5t63.5 -21q18 -6 45.5 -9t58.5 -1t58.5 8t44.5 19q12 8 39.5 26.5t54 39t45 41t14.5 34.5q14 0 32.5 19.5t38 49 t39 63.5t39 64.5t35 53t27.5 29.5q3 -7 3 -15q-1 -23 -21 -57q-28 -47 -64.5 -95t-66 -87t-25.5 -50q-23 -2 -37 -25.5t-37 -41.5q-4 -4 -16 -13.5t-26.5 -20.5t-28 -20.5t-15.5 -11.5q-59 -35 -104 -48t-101 -23q-20 -3 -38 -3q-46 0 -87 20q-57 30 -102 71t-80 77.5 t-59 38.5l8 17q-14 2 -24.5 7t-20.5 11t-23.5 10.5t-33.5 4.5q-25 0 -46.5 -7.5t-48.5 -23.5q-43 -29 -80.5 -80t-58.5 -96q-29 -55 -47 -102.5t-30.5 -94.5t-17.5 -101t-5 -124q0 -14 7 -33.5t15.5 -38t13.5 -36t1 -27.5q29 -10 56.5 -39t66.5 -33q41 -2 69 -3h4 q27 0 68 11q8 2 24.5 8.5t35 13.5t36 15t29.5 16l17 12q16 11 36.5 23.5t38.5 23.5t25 11v-20q0 -12 -26 -32t-59.5 -40.5t-66.5 -36.5t-47 -20q-39 -12 -66.5 -19.5t-52 -11.5t-48.5 -5t-56 -1h-23q-12 0 -14 -2t-8 -6q-12 18 -27.5 28t-31 20.5t-31 27t-27.5 46.5 q-4 6 -7 24.5t-5 40t-4.5 44.5t-2.5 39z" />
<glyph unicode="L" horiz-adv-x="1886" d="M25 -41q20 31 38.5 66.5t28.5 48.5q14 16 26.5 27.5t26.5 27.5q10 10 12.5 15.5t2.5 9.5t1 11t11 21q23 29 39 56.5t33 48.5q12 16 18 27.5t12.5 22.5t13.5 23.5t21 32.5q45 70 77 118t67 101q16 23 44.5 57t47.5 58q2 4 12 19.5t24.5 32t29 30.5t26.5 14l-8 9l121 145 q16 2 28.5 16.5t22.5 24.5q18 18 25.5 22.5t23.5 20.5q27 25 51.5 44t46.5 42q47 41 101.5 76t111.5 69q53 31 111.5 58.5t117.5 45.5q60 20 120 28q29 4 56 4q29 0 58 -5q82 -10 127 -47t63 -88q13 -38 13 -82q0 -14 -2 -30q-6 -62 -31 -121q-18 -47 -50 -101.5t-67 -97.5 q-12 -14 -33.5 -43t-46 -57.5t-47 -51t-37.5 -22.5q4 -12 -18 -32.5t-52 -41t-58.5 -38t-36.5 -23.5q-60 -35 -112 -36h-1q-51 0 -88 54q0 68 5 102t17.5 58.5t33 50t50.5 72.5q4 6 23.5 27.5t48.5 49t60.5 54.5t58 44t44 20.5t17.5 -19.5q0 -4 -16 -15.5t-35.5 -22.5 t-38 -21.5t-24.5 -10.5l8 -14l-8 6l-45 -45l6 -6h-23l8 -16l-8 6l-47 -45l8 -8h-22q6 -14 -8.5 -36t-27.5 -50q-14 -27 -20 -61q-1 -7 -1 -15q0 -27 18 -58q14 -18 40.5 -24t43.5 -6q27 0 52.5 13t48 30.5t42 32t35.5 16.5l-8 4l45 49l47 43l6 -6q-2 6 11.5 30.5t31.5 52.5 t36.5 54.5t25.5 38.5q8 16 19 46t21.5 59.5t20.5 54t16 31.5l-22 47q2 4 4 3t3 -3t1 0v14v23q0 14 -6 27.5t-13.5 24.5t-11.5 20t0 18q-23 4 -32 9t0 21q-20 2 -38 8.5t-35.5 13.5t-38 12t-46.5 5q-6 0 -9 -2t-5.5 -2t-7.5 2t-15 10q-8 -6 -33.5 -11t-57.5 -12t-67 -17.5 t-63 -22.5q-14 -8 -51 -25.5t-74 -38t-62.5 -40t-19.5 -29.5q-23 -2 -68 -36t-100 -85t-113.5 -111.5t-109.5 -116t-87 -99.5t-44 -60q-4 -6 -17.5 -26.5t-30 -43t-30.5 -43t-21 -28.5q-27 -35 -48 -63.5t-48 -69.5q-10 -16 -37.5 -60.5t-57.5 -91.5t-52.5 -85t-20.5 -44 q6 -4 26.5 8t44 29.5l47 35t36.5 25.5q43 29 93 45.5t89 38.5q35 0 56.5 8.5t41.5 8.5h9l38 -4q20 2 53 -9.5t64 -26t54.5 -25.5t25.5 -11h23q4 -10 32.5 -35t63.5 -51.5t67.5 -49t44.5 -30.5q20 -12 53.5 -31.5t49.5 -29.5q27 -20 63.5 -31.5t67.5 -32.5l78 -6l59 -6l8 4 q20 0 15.5 0t1.5 -6q23 14 40 13t54 13q31 10 45 22.5t37 24.5q43 29 79 55.5t64 69.5l23 -16q-18 -27 -46 -53.5t-58.5 -51t-62.5 -44t-56 -31.5q-35 -16 -77 -24.5t-80 -14.5t-66.5 -10t-35.5 -9q-4 6 -21 11.5t-39.5 10.5t-46.5 10t-40 11q-29 10 -72 39t-71 45 q-16 8 -37 20.5t-42.5 25t-40 23.5t-28.5 21q-10 8 -28.5 22.5t-39 28t-40 26t-29.5 18.5q-53 27 -88 42t-63.5 22t-57.5 5t-65 -10q-41 -10 -78 -28.5t-80 -34.5q-16 -6 -33.5 -20.5t-34 -30t-34 -28t-33.5 -14.5l8 -14q-18 -2 -43 -24.5t-48.5 -48t-44 -46t-32.5 -20.5 l-8 4z" />
<glyph unicode="M" horiz-adv-x="1964" d="M76 -51v12q0 40 11 78q13 43 28 84q4 10 17 34.5t26.5 51.5t22.5 49.5t5 28.5h25q0 12 24.5 50t56.5 81t63.5 84t45.5 59q33 37 59.5 69t52.5 62.5t54.5 61t63.5 65.5q8 8 26.5 24.5t40 33t41 32t29.5 21.5q41 23 69.5 46t67.5 48q33 18 46.5 25.5t20.5 16.5t12 24.5 t20 48.5q8 18 16 44.5t15 52.5t12.5 44t5.5 20q-14 20 -21.5 37t-17.5 28t-28.5 16t-55.5 5h-25l-47 -8l-240 -26q-39 -2 -69.5 -8.5t-60 -11.5t-58.5 -8t-63 1q-55 2 -92 4t-63 11.5t-47.5 27.5t-45.5 55l8 103l59 18q8 -37 7.5 -56.5t6.5 -33.5t28.5 -27.5t72.5 -35.5 q59 -27 115 -27h8q60 2 104 6q27 2 94.5 12.5t138 22.5t126 24.5t57.5 18.5l25 -18q6 8 34.5 13t59.5 -2t55 -29q19 -18 18 -51q0 -8 -1 -18q-4 -31 -8.5 -47t-9.5 -27.5t-11 -20.5t-14 -27q-12 -27 -24.5 -55.5t-29.5 -57.5q18 0 42 7t47.5 15.5t45 15.5t35.5 7h39 q35 0 72 -23.5t53 -62.5q6 -10 8 -28.5t2 -39t-3 -42t-7 -39.5q-10 -47 -32.5 -96.5t-34.5 -84.5q0 -4 -9.5 -23.5t-20.5 -44t-21.5 -46t-12.5 -25.5q8 0 29.5 16.5t48.5 39t51.5 45t38.5 32.5q16 12 33.5 33.5t40.5 38.5q23 16 45 28.5t45 28.5q66 0 79 -28q10 -21 10 -48 q0 -9 -1 -18q-4 -33 -14.5 -71t-20.5 -74q-14 -47 -28.5 -84t-24.5 -82q-10 -41 -15.5 -85t-9.5 -75l2 -29l-2 -24q0 -76 55.5 -123t145.5 -47h25q18 0 37.5 10t40 24.5t40 30t37.5 25.5l13 -15q-23 -31 -58 -56t-73.5 -41.5t-77.5 -26t-70 -9.5h-6q-88 0 -122 52t-35 128v7 q0 75 20 161q20 92 42 170q20 78 32 134q4 21 5 34q0 23 -12 27q2 12 5 16.5t5 6.5t3.5 4t1.5 12q0 33 -26 31t-56.5 -16.5t-59 -33t-35.5 -20.5l7 -12q-16 -2 -53.5 -33t-76 -71t-72.5 -77.5t-44 -52.5q-12 -23 -31.5 -54.5t-41 -66t-41 -67.5t-32.5 -57q-12 -27 -40.5 -64 t-43.5 -55q-12 -16 -20 -29.5t-17.5 -25t-23.5 -22.5t-43 -26l-12 21q2 6 3 6t1 -1t0 1v14l-4 8q-2 4 -2 9q12 8 29.5 33.5t36 57.5t39 62.5t38.5 48.5q23 16 40 45l34 58q23 29 41 51q16 20 29.5 35.5t13.5 17.5q27 27 59.5 88.5t60 131t47 135t19.5 102.5q0 23 -9 54.5 t-30 62.5q-10 16 -21.5 21t-23.5 7t-23.5 4.5t-23.5 12.5l-41 -2q-10 0 -34.5 -7.5t-53.5 -18.5t-53.5 -25.5t-30.5 -26.5q-18 -37 -48 -81t-56 -85q-10 -14 -24.5 -36.5t-31.5 -45.5q-10 -16 -22.5 -33.5t-26.5 -40.5q-6 -14 -24.5 -35.5t-36 -45t-29.5 -44t-6 -32.5h-25 q4 -6 -11 -31t-41 -57.5t-56.5 -72.5t-57 -77t-45 -67.5t-18.5 -47.5l-8 7l-101 -125l6 -7q-10 0 -25 -16t-32.5 -37.5t-35 -42t-31.5 -33.5q-18 -12 -40 -26q-23 -14 -39 -18q-5 -1 -8 -2q-11 0 -20 8q-12 12 -12 53zM119 8l12 -26l66 -2q10 14 36.5 40.5t52 53t45 51.5 t13.5 37l37 22l55 103q14 2 35 25.5t42.5 53t38.5 57.5t28 36q4 2 20 26.5t34.5 55t36 58.5t23.5 40q29 37 63 88t64 100q20 29 29.5 48.5t32.5 39.5q16 18 26.5 41t28.5 52l-66 -37l7 -8q-25 -2 -76 -39t-111.5 -91.5t-123 -118t-112.5 -121.5t-80 -101t-24 -56 q-14 -2 -35.5 -25.5t-43 -56t-41 -64.5t-29.5 -48q-29 -43 -54.5 -108.5t-29.5 -125.5zM922 125q14 10 35.5 32.5t41 50.5t32.5 55.5t16 47.5q-10 -6 -30 -30.5t-41.5 -53t-37.5 -57.5t-16 -45z" />
<glyph unicode="N" horiz-adv-x="1306" d="M84 1498q-1 8 -1 15q0 23 10 43q13 26 36 25h23q0 -43 8 -63.5t20.5 -30.5t29.5 -15.5t36 -17.5l248 -24l2 8h114q31 0 52.5 -1t46.5 -12q8 -4 25.5 -12t34.5 -16t31.5 -14.5t16.5 -6.5q-4 -14 10.5 -34.5t24.5 -43.5q10 -35 7 -52t-3 -38v-39q0 -23 0 -17.5t8 1.5 q-23 -31 -29 -80t-16 -82q-4 -12 -11 -31.5t-15.5 -40t-15.5 -41t-7 -34.5l33 8q-4 8 4 19.5t20.5 21.5t26.5 20.5t25 18.5q4 4 17 15t28.5 23.5t29 21.5t17.5 14q6 4 21.5 13t31.5 18.5t29.5 16.5t19.5 7q37 8 47 10t13.5 0t10.5 -5t38 -5q-6 -14 -5 -22.5t3 -16.5t3 -19.5 t-5 -29.5q-4 -20 -16.5 -41t-16.5 -33q-10 -29 -28.5 -63.5t-35.5 -63.5q-16 -29 -32.5 -67.5t-32.5 -63.5q-12 -23 -35 -63.5t-37 -69.5q-32 -66 -52 -144q-15 -57 -15 -111q1 -19 3 -38q8 -70 54.5 -117t152.5 -47q33 0 61 13.5t51.5 30t43 29.5t35.5 15q-2 -25 -14.5 -39 t-29.5 -24t-36.5 -18.5t-34.5 -20.5q-16 -14 -28.5 -20.5t-26.5 -9.5t-32.5 -4t-47.5 -3q-13 -1 -26 -1q-22 0 -46 4q-38 7 -70 25.5t-53.5 47t-21.5 69.5v41l2 37q0 31 19.5 89.5t46 123t53 122.5t43.5 89q12 25 23.5 44.5t21.5 43.5l6 15q6 14 14.5 31.5t15.5 32.5t9 20 q12 14 24.5 42.5t16.5 56.5t-6 49.5t-43 21.5q-16 0 -34.5 -9.5t-37 -21.5t-35 -22.5t-30.5 -12.5l10 -14q-10 -2 -39 -22.5t-60.5 -47.5t-59.5 -52.5t-34 -33.5q-23 -33 -30 -55.5t-29 -46.5q-4 -4 -13.5 -19.5t-20.5 -33t-21.5 -34t-12.5 -20.5q-8 -14 -27.5 -45 t-44 -69.5t-53 -79.5t-55.5 -76t-48.5 -57.5t-31.5 -22.5l6 -6l-67 -84q-20 -4 -27.5 -13.5t-14.5 -18.5t-21.5 -16.5t-49.5 -2.5q8 20 4 30.5t2 26.5q8 16 16.5 34.5t12.5 24.5t15.5 22.5t21.5 34t17 33t5 21.5h23q-6 16 13.5 43t46 55.5t47 54t14.5 39.5l37 23l47 45 q-4 14 26.5 45t70.5 65.5t77 69.5t47 56q14 37 27.5 70.5t23.5 68.5t18.5 72.5t16.5 84.5q3 21 3 42q0 62 -22 120q-30 78 -110 115q-47 20 -92 26.5t-89 6.5t-87 -1h-17q-34 0 -65 3l-86 14q-10 -4 -20.5 -1t-20.5 3q-59 0 -85 25.5t-30 57.5zM254 172h33q12 8 43.5 43 t63.5 77t57.5 81t25.5 51q14 2 26.5 15.5t20.5 29.5t13.5 32.5t9.5 22.5q6 10 19.5 26.5t25.5 34t20 33.5q6 11 7 17q0 2 -1 4h-1q-7 1 -39 -29q-34 -32 -71.5 -74t-69 -82t-31.5 -55l-19 -4l-84 -114l6 -9h-18z" />
<glyph unicode="O" horiz-adv-x="1204" d="M53 320q-1 11 -1 26.5t1 36.5q0 6 4 25.5t8.5 40t7.5 37t3 18.5q10 33 17 60.5t20 68.5q14 35 30.5 61.5t28.5 55.5q29 61 56.5 103t58.5 95q12 18 35.5 45t50 53.5t49 51t29.5 39.5q14 29 39.5 44t50.5 38q16 16 28.5 25t23.5 15.5t22.5 13.5t27.5 19q31 25 56.5 41.5 t50 30.5t50 26.5t58.5 28.5q14 6 45 17.5t64.5 22.5t61.5 21.5t36 16.5l115 -2l2 -8l-15 -60q-39 -10 -72.5 -14t-65.5 -8t-65.5 -11.5t-72.5 -21.5q-41 -16 -78 -31.5t-76 -37.5q-4 -4 -25.5 -15.5t-45 -25t-44 -23.5t-22.5 -10l8 -15q-18 -2 -37.5 -16t-38 -32.5t-34 -37 t-27.5 -28.5q-10 -10 -29.5 -27.5t-38 -37t-31 -38t-7.5 -28.5q-16 -2 -41 -34t-48.5 -72t-43 -76.5t-25.5 -51.5q-10 -27 -23.5 -61.5t-26 -70.5t-21.5 -71.5t-9 -64.5v-8q0 -19 -2 -63q-1 -18 -1 -35q0 -27 2 -55q3 -46 14.5 -83t39.5 -39q2 -23 10.5 -36t20.5 -21 t28.5 -15.5t34.5 -19.5q43 0 72 -3t53.5 -4t50 4t62.5 22q25 12 58.5 27.5t66.5 32.5t60.5 36.5t39.5 38.5q-18 29 -31.5 44t-21.5 28.5t-13 34t-9 59.5q-6 41 -8.5 60.5t-1.5 31.5t4 26.5t10 49.5q4 25 9 49t7 39q0 14 3 22t8 14.5t9.5 14.5t8.5 20q6 35 22.5 65t32.5 64 q16 29 40.5 73t47.5 71q18 20 31.5 34.5t32.5 30.5q12 12 16 18.5t6 12.5t7 13t20 22q6 6 27.5 22.5t46 34t44 30.5t23.5 15q39 14 63.5 18.5t43 2.5t36 -7.5t43.5 -7.5q-4 -10 -1 -15t9.5 -11t11.5 -12.5t7 -14.5q4 -23 7 -25t7 -18v-96q0 -18 -7 -49t-16 -64t-18.5 -60.5 t-15.5 -37.5q-20 -35 -30.5 -59.5t-20.5 -49.5t-28.5 -51t-35.5 -53q-18 -33 -38.5 -52.5t-34.5 -47.5q-8 -10 -21.5 -23.5t-26 -28t-19.5 -27t-3 -20.5l-51 -35q8 -25 -33 -26l6 -6l-33 -31l4 -10q-23 0 -42 -15.5t-19 -36.5q0 -12 21.5 -20t48 -12t51 -5t31.5 -1 q49 0 85.5 15t66.5 33.5t51.5 34t39.5 15.5q-8 20 15.5 32.5t46.5 14.5q0 -27 -21.5 -52.5t-50.5 -47t-57.5 -37t-46.5 -21.5q-53 -16 -105.5 -28.5t-107.5 -12.5q-4 0 -15.5 4.5t-21.5 4.5q-23 0 -35 2t-23.5 5t-25 7t-33.5 8q-35 -25 -65.5 -44t-61.5 -37.5t-65.5 -36 t-77.5 -38.5q-47 -20 -93.5 -27t-85.5 -14q-19 -3 -35 -3q-14 1 -26 3q-24 6 -42.5 12.5t-34 14.5t-36.5 10q4 8 -3 18.5t-19 23t-24.5 26.5t-18.5 33q-8 25 -13.5 40t-7.5 26t-2 20.5v23.5q0 32 -2 54zM721 481q2 -4 10 -31.5t19.5 -59.5t26 -57.5t28.5 -25.5q25 0 44 21.5 t42 36.5q16 8 41.5 36.5t38.5 42.5q39 41 71.5 93.5t71.5 93.5q29 35 56.5 91t48 116.5t33 115t12.5 84.5v9q0 18 -5.5 41.5t-16.5 45t-28.5 36t-42.5 14.5h-6q-68 0 -121 -41t-94 -80q-23 -23 -23.5 -33t-4.5 -18q-8 -12 -13.5 -12.5t-9.5 -0.5t-9 -3t-13 -21 q-4 -6 -12.5 -20.5t-18.5 -31t-19.5 -29.5t-13.5 -17l8 -29h-22q-4 -29 -20.5 -73t-24.5 -81q-4 -23 -10.5 -40t-11.5 -34.5t-8 -40t-3 -53.5l24 -37z" />
<glyph unicode="P" horiz-adv-x="929" d="M80 238q8 10 11 15t2 8t-3 8t-2 18l-8 147v6q0 23 3 54.5t7 63.5t10 62.5t13 49.5q10 29 13 48t9 40q6 16 15.5 37.5t13.5 44.5q2 18 11 41.5t21.5 49t24.5 50.5t23 43q8 20 26.5 41.5t37 42t34.5 37t23 26.5q0 2 15 15.5t33.5 31t36 32t23.5 16.5q23 16 33 22t26 15 q12 6 13.5 11t17.5 11q16 8 17.5 5t11.5 3q35 20 66.5 34.5t72.5 27.5q27 8 69 14t60 16l98 7h21l57 4q18 -10 53 -9.5t58 -7.5q10 -4 21.5 -5t31.5 -5q10 -2 13.5 -3t6.5 -4t8 -6t17 -10q49 -16 104.5 -52t90.5 -64q31 -27 48 -42.5t29.5 -29.5t23.5 -33.5t34 -56.5 q18 -35 25.5 -61.5t8.5 -52.5v-16q0 -16 -1 -34q-2 -26 -2 -57q0 -18 -9.5 -42t-25 -48.5t-35.5 -47t-43 -34.5q-41 -27 -94 -38t-94 -11h-9q-34 0 -84 13q-56 15 -100 58q-16 16 -39.5 35t-46.5 35q-29 25 -47 30t-35 15q-10 18 1 25.5t35 5.5t53.5 -11.5t54 -20.5 t39 -24.5t10.5 -23.5l16 -6l-4 -9q12 -2 34.5 -14t51.5 -26.5t60.5 -25.5t60.5 -11q6 0 33.5 3t48.5 7q29 8 42 22.5t46 16.5q-6 12 12 32.5t31 45.5q8 16 10 37.5t2 42.5q0 72 -40 134t-105 128q-29 29 -67 55.5t-79 42.5q-8 2 -29.5 12t-46 20.5t-47 20.5t-30.5 17 q-14 -4 -37 0t-47.5 9t-51 9t-49.5 4h-121l-247 -65l-168 -115l-27 -31q4 -12 -3 -16t-30 -6l-12 -25q-12 -4 -35.5 -36t-47 -72.5t-42 -80.5t-24.5 -59q-6 -25 -17.5 -53.5t-23 -60t-18.5 -63.5t-7 -60q0 -41 -5 -83t-5 -65q0 -6 1 -24.5t2 -40t3 -43t2 -33.5 q0 -25 8 -59.5t23.5 -70.5t36 -69t49.5 -53q23 6 30 6h11t10 2t29 15q16 10 35.5 24t27.5 33q6 12 17.5 30.5t25.5 40t28.5 42t24.5 36.5l17 33q6 12 11 23.5t7 15.5q4 14 14.5 32.5t20.5 37.5q20 29 42.5 70.5t41.5 80.5l77 154t89 147q23 29 45 65t55 77q4 4 24.5 25.5 t43 42t41 27.5t18.5 -18q0 -8 -27.5 -30.5t-58.5 -49t-54.5 -53t-17.5 -43.5h-20q2 -6 -15.5 -39.5t-42 -73.5t-47 -77t-28.5 -49q-12 -23 -28.5 -55.5t-31.5 -61.5q-14 -29 -31.5 -56.5t-39.5 -66.5q-25 -45 -36 -75.5t-34 -65.5q-23 -33 -32 -55.5t-31 -57.5 q-6 -12 -18.5 -30.5t-26 -38t-26.5 -37t-22 -25.5q-25 -25 -38 -35t-23 -16t-22.5 -12.5t-34.5 -22.5l-72 18q-4 8 -11 16.5t-15.5 20t-17.5 26.5t-15 38q-8 33 -10.5 67.5t-22.5 49.5z" />
<glyph unicode="Q" horiz-adv-x="1863" d="M78 915q10 16 13 23.5t3 12.5t1 10.5t11 17.5q16 23 23.5 39t17.5 31q23 35 44.5 68.5t31.5 60.5q10 20 24.5 32.5t20.5 30.5t14.5 28.5t22.5 30.5q6 12 21.5 33t32 41.5t26.5 39t8 24.5l19 4l26 41l21 -2v-35l-58 -66q2 -6 -13 -24.5t-33.5 -40t-33 -42t-8.5 -32.5h-18 l-12 -41q6 2 24.5 14.5t40 29t42 31.5t30.5 21q4 2 20.5 10.5t38 18.5t41 19.5t29.5 13.5q162 74 309 78q45 0 102.5 -13.5t109.5 -45t88 -84t36 -130.5l14 -14q-8 -12 -10 -15.5t-1 -4.5l3 -3t4 -12q0 -16 -5 -39.5t-13 -51.5t-16.5 -54.5t-14.5 -46.5q-12 -33 -22.5 -56.5 t-21.5 -45t-24.5 -43t-29.5 -46.5q-14 -23 -27.5 -50.5t-28.5 -37.5q-2 -2 -12 -15.5t-22.5 -28.5t-21.5 -29l-9 -13q-10 -16 -31.5 -39.5t-44 -48.5t-42 -46.5t-21.5 -29.5q6 -4 22.5 -9t34.5 -11t37.5 -13.5t32.5 -15.5q29 -18 59.5 -37.5t54.5 -36.5q59 -35 115.5 -69.5 t116.5 -69.5q23 -14 53.5 -28.5t64 -24.5t67.5 -16q16 -2 32 -2q17 0 33 3q29 4 47 8.5t61 14.5q12 2 28.5 12.5t33 20.5t31 18t22.5 8l-4 13l4 -6l96 65q-2 -23 -19.5 -44t-43 -40.5t-54 -36t-53.5 -26.5q-41 -23 -93 -38.5t-97 -15.5h-109q-31 -2 -55.5 13.5t-61.5 15.5 q-8 10 -21 16.5t-28.5 13.5t-28 16t-16.5 28l-110 47l4 8l-193 113q-39 0 -55.5 12t-28.5 20.5t-29.5 8.5t-58.5 -25v-14q-10 0 -26.5 -11.5t-35 -24.5t-35 -27.5t-24.5 -20.5q-29 -25 -58.5 -44.5t-62.5 -39.5t-61.5 -42t-62.5 -32l-20 -8q-21 -8 -45 -18.5t-43 -18.5 t-21 -10q-29 18 -40.5 30.5t-11.5 25.5t9.5 29.5t21.5 43.5q10 27 43 59.5t61 55.5q29 27 64 52t66 42q12 4 32.5 12t41 15.5t38 15.5t23.5 12h37q29 19 66 19h15q46 -5 97 -5q2 0 18.5 16.5t36.5 38t37.5 41t21.5 23.5q2 2 13.5 18.5t24 37t22.5 38t14 21.5q20 25 30.5 37 t16.5 21t11.5 21.5t17.5 39.5q14 37 24.5 56t30.5 62q10 23 17.5 62t19.5 82q10 27 10 61.5t-4 54.5q-4 33 -8 51.5t-10 33t-16.5 27.5t-26.5 36q-20 31 -55 49.5t-74 29.5t-78 14t-68 3q-63 0 -118.5 -14t-105.5 -37t-96 -49.5t-91 -52.5q-18 -10 -41 -28.5t-44.5 -39 t-42 -41t-34.5 -35.5q-18 -18 -33.5 -44.5t-30 -53.5t-28 -48.5t-27.5 -29.5zM244 88h65q12 0 44 15.5t72 39t84 53t83 57.5t67.5 51.5t36.5 37.5l-125 10q-16 0 -41.5 -9t-55.5 -21.5t-60.5 -26.5t-53.5 -27q-57 -31 -88 -74q-28 -39 -28 -92v-14z" />
<glyph unicode="R" horiz-adv-x="1318" d="M76 434l16 19q0 41 7 86t18.5 90t25 87t25.5 79q14 41 26.5 75.5t28.5 65.5q6 8 18.5 26.5t25 39t20.5 38t6 23.5h22q-2 5 -2 11q0 20 27 50q35 38 84 77.5t100 74.5t76 49q39 23 91 43.5t104.5 35.5t98.5 24.5t77 9.5h53l51 -2q29 0 66 -5.5t76.5 -14.5t78.5 -22.5 t72 -27.5q33 -12 71 -35.5t62 -46.5q23 -18 30 -26.5t32 -24.5q16 -10 19 -21.5t26 -31.5q52 -49 80 -122q27 -68 26 -151v-12q0 -25 -13 -68t-36 -85t-51.5 -73.5t-61.5 -33.5l11 -14q-43 -4 -60.5 -12.5t-31 -12.5t-32 -4t-61.5 12q-53 14 -84.5 45t-76.5 64 q-47 31 -86 50q-19 9 -41 9q-23 0 -48 -10q-12 -4 -36.5 -18.5t-47 -32t-39 -36t-10.5 -30.5q-23 -2 -41 -39t-31.5 -82t-20.5 -86t-7 -53v-105.5t19.5 -130t69.5 -109.5t149 -46q74 2 132 38t126 83q10 -23 -19 -51.5t-73 -54t-92 -43t-74 -17.5h-95q-29 0 -52 11 t-44.5 24.5t-38 24.5t-29.5 11l5 11l-19 10l-29 61l-2 54q-16 23 -16 53.5t7 68t14.5 79.5t7.5 87q16 10 22 22.5t10 35.5q2 12 4.5 16t4.5 7l5 7.5t9 18.5q16 29 28.5 52.5t32.5 43.5q14 14 22.5 23.5t16 18.5t17.5 19.5t28 24.5q16 12 28.5 20.5t23 14.5t21.5 14.5 t28 20.5h37q27 18 57.5 12t62 -23.5t62.5 -40t59 -38.5q33 -23 53.5 -40.5t57.5 -19.5q14 0 21.5 -4t29.5 -4q12 0 17.5 2t8.5 4t11 4t27 2l55 50q-4 10 13.5 23t29.5 42q10 25 14 40t4 38q0 4 -3 15.5t-3 19.5q0 25 -2 40t-6 29.5t-10 27.5t-15 34q-8 16 -20 32.5t-22.5 31 t-17.5 25.5t-3 17h-25q6 14 -18.5 40t-60 50.5t-71.5 46t-54 29.5q-33 16 -63 28.5t-64 22.5q-35 8 -74 15.5t-53 17.5l-91 4h-38l-50 -2l-8 2l-88 -8q-23 -12 -61.5 -16t-85.5 -31q-16 -10 -43 -16.5t-41 -16.5t-19.5 -14t-8.5 -6t-9 -5t-21 -12q-29 -12 -61.5 -40.5 t-64 -63.5t-59.5 -71t-44 -62q-86 -129 -129 -271.5t-43 -316.5q0 -29 7 -66.5t7 -62.5q0 -23 1 -33t2 -18t4.5 -19.5t7.5 -36.5q6 -35 33.5 -68.5t62.5 -39.5q27 -4 42 0t25.5 11t20.5 14.5t27 9.5q-4 8 7 25.5t26.5 36t32 38t24.5 31.5q25 41 43 68.5t37 72.5 q10 16 25.5 31.5t19.5 28.5q4 14 15 30.5t21 36.5q20 35 44 74t38 72q14 31 24.5 41t20.5 30q10 25 17.5 41.5t15.5 30.5q16 25 39 60.5t45 68.5q25 41 48.5 73.5t49 60.5t55 52.5t70.5 50.5l17 -20q-84 -57 -144.5 -123.5t-101.5 -144.5q-25 -41 -50.5 -80t-41.5 -80 q-6 -14 -17.5 -32.5t-27.5 -41.5q-10 -14 -13.5 -21t-6.5 -13.5t-6 -13.5t-13 -21q-20 -31 -42 -76t-46 -86q-8 -14 -21.5 -33.5t-28 -39t-27.5 -39t-19 -34.5q-4 -10 -17.5 -30.5t-29 -43t-31 -41t-21.5 -26.5q-12 -16 -28.5 -37.5t-26.5 -27.5q-14 -10 -34.5 -29 t-31.5 -35q-74 0 -111.5 22.5t-51.5 108.5q-2 10 -4.5 14.5t-5.5 7.5t-5 7t-2 16q-2 12 -3 23.5t-3 31.5q-2 10 -3 29l-2 38t-2 36.5t-1 30.5v51q0 20 1 14t-7 2z" />
<glyph unicode="S" horiz-adv-x="1550" d="M27 23l55 253l24 -4l5 -53h10q0 4 9 19.5t20.5 33t21.5 31.5t14 19q8 8 16.5 22t16.5 28.5t18.5 25t24.5 12.5q-4 12 24.5 55t66.5 92t76 93t52 59q33 33 65 73.5t66 77.5q23 20 39.5 34.5t32.5 37.5q10 16 19.5 25.5t16.5 14.5t10 9t-1 14q16 2 30.5 12.5t28 23.5 t24.5 26.5t22 21.5q27 27 49 44.5t55 33.5q23 14 50.5 37t55.5 41q20 14 30.5 18t25.5 13q14 6 22 17t23 17q8 4 11 4.5t4 0.5h3t8 4q2 0 12.5 8t14.5 10q16 8 33.5 17.5t28.5 13.5q29 14 67.5 27.5t56.5 17.5q38 8 60 10q14 1 28 1h14q20 -1 44 -4t72 -3l49 -18 q10 -14 26.5 -25.5t34 -24t31.5 -28t20 -37.5q6 -23 13.5 -37t13.5 -27.5t11 -29t5 -41.5q0 -98 -22.5 -190.5t-79.5 -194.5q-14 -25 -46 -76t-70 -103.5t-72.5 -92.5t-55.5 -42q2 -8 -5 -22.5t-20.5 -28.5t-29.5 -25.5t-31 -11.5q6 -16 0 -21t-28 -7q2 -6 -3.5 -15.5 t-15.5 -17.5t-22.5 -17.5t-20.5 -15.5q-12 -10 -36.5 -29.5t-45.5 -21.5l6 -17l-51 -32q37 0 66.5 4t57.5 13t57.5 21.5t64.5 26.5q6 2 43 19.5t78 37t77.5 35t43.5 15.5q-4 -23 -35 -44.5t-71 -40t-79 -34.5t-57 -25q-27 -14 -61.5 -24t-72.5 -17.5t-76 -14.5t-69 -13 q-37 -8 -64.5 -12.5t-70.5 -26.5q-29 -16 -66.5 -29.5t-78.5 -21.5q-51 -10 -77 -13.5t-46.5 -3.5t-45 1t-75.5 1q-27 18 -43 21.5t-41 17.5q-20 10 -35.5 30.5t-34.5 31.5q-14 6 -29.5 26.5t-27.5 45t-21.5 48t-9.5 39.5l-2 125l17 11q10 -4 30.5 -39t51.5 -64 q20 -20 32.5 -31.5t24.5 -19.5t27.5 -15.5t42.5 -19.5q78 -37 157.5 -54.5t151.5 -19.5l166 -8q33 23 69.5 41.5t75.5 40.5q10 8 27.5 22.5t36 29t35 27.5t24.5 24q14 16 48 48.5t68 68.5t58.5 66t18.5 42q20 2 43.5 36.5t46 79t40 86.5t27.5 62q2 4 9.5 25.5t13.5 46t11 47 t5 31.5q4 20 6 35.5t3 27.5t1 26.5t2 36.5l-2 31q0 12 -5 37t-16 49.5t-25.5 44t-32.5 21.5q6 16 -13.5 31.5t-48.5 26.5t-56.5 18.5t-35.5 7.5h-78q-27 0 -70 -13.5t-90 -33t-91 -41t-70 -37.5q-66 -41 -135.5 -90t-131.5 -109q-61 -59 -119.5 -118.5t-115.5 -125.5 q-27 -31 -53.5 -62.5t-47.5 -59.5q-8 -12 -25.5 -31t-34.5 -38.5t-28.5 -35.5t-7.5 -24h-20q6 -20 -11.5 -31.5t-31.5 -34.5q-12 -20 -20.5 -34.5t-18.5 -28.5q-29 -35 -42 -57.5t-40 -65.5q-18 -29 -43 -65t-37 -64q-6 -12 -18.5 -33t-25.5 -42.5t-28.5 -37.5t-29.5 -18z M381 281q8 -55 29.5 -93t66.5 -79q23 -20 51.5 -31.5t57 -19t52.5 -11.5t34 -12q12 8 48 11t78 7t79.5 13.5t50.5 27.5q-19 -1 -37 -1q-47 -1 -86 7q-53 10 -103 13q-31 0 -63.5 11t-63 24.5t-56 25.5t-44.5 12l6 7z" />
<glyph unicode="T" horiz-adv-x="1417" d="M35 219v158h20v14q29 -18 52.5 -39.5t52.5 -38.5q29 -16 48 -27.5t50 -31.5q8 -4 39 -18.5t67.5 -28.5t71.5 -23.5t51 -3.5q10 -14 44 -21t73 -11q30 -3 58 -3q8 0 16 1q35 1 49 4l33 -5q37 4 58.5 4.5t55.5 16.5q12 6 26.5 16.5t30 20.5t30 19t24.5 9l-8 15l80 53l43 45 l6 -6q-4 8 9 26.5t33.5 40t40 40t30.5 28.5q8 8 22 26.5t28.5 38t27 40t20.5 32.5q10 23 23.5 38.5t23.5 35.5q6 12 7 15t0 5.5t-1 5.5t6 13q10 14 15.5 17t9.5 14q10 25 22.5 43t18.5 34q4 18 9 32t15 34q16 37 24.5 85t8.5 96t-10 92t-31 75q-16 25 -26.5 41.5t-22.5 27.5 t-28.5 20t-43.5 22q-25 10 -53.5 17t-55 12.5t-48 9.5t-31.5 10q-4 -4 -24.5 -8t-48 -9.5t-57.5 -10.5t-50 -11q-29 -8 -73 -27.5t-89 -46.5q-43 -27 -79 -52.5t-77 -53.5q-16 -12 -22 -17.5t-12.5 -10.5t-13.5 -12t-21 -24q-20 -20 -28.5 -36.5t-33.5 -24.5l-8 2l70 133 q8 2 19 15.5t23.5 29.5t21.5 31.5t11 19.5q4 12 15.5 25.5t22 27t16.5 26.5t2 24l6 -4l84 96l-8 4l28 8q-4 14 5.5 27.5t25.5 13.5l2 -2q4 -4 6 -4q4 -2 6 -4l-49 -60l4 -8q-16 -2 -47 -36.5t-64.5 -78.5t-63.5 -87t-42 -62q8 0 30.5 12.5t48.5 29.5t48.5 32.5t32.5 21.5 q78 53 166 90q14 6 36.5 15.5t47 17.5t48 14.5t42.5 10.5q33 6 56.5 6t43 -1t39 -3t41.5 -2q25 0 54.5 -8.5t59.5 -23.5t55.5 -34.5t43.5 -44.5q18 -29 33.5 -52.5t25 -51t14.5 -60t5 -80.5q-8 -10 -10 -20t-2 -22.5t-2 -30t-9 -41.5q-10 -29 -19 -57.5t-22 -57.5 q-6 -14 -19 -44t-31.5 -63.5t-39 -65.5t-37.5 -46q-41 -43 -78.5 -97.5t-82.5 -103.5q-27 -27 -50.5 -48t-50.5 -50q-10 -12 -25.5 -23.5t-28.5 -22.5t-21.5 -21.5t-4.5 -18.5l-2 6l-118 -86l39 -4q12 8 40.5 16.5t60.5 14.5t62.5 12t47.5 12q20 6 54 17.5t66.5 22.5 t60 19.5t36.5 8.5v-19q-23 -4 -58 -22.5t-53 -20.5q-31 -8 -57.5 -17t-55.5 -17q-41 -10 -71.5 -18.5t-58 -15.5t-55.5 -14.5t-60 -15.5l-35 -7t-28 -6t-26.5 -7t-27.5 -13q-23 -12 -54.5 -34.5t-60.5 -28.5q-23 -4 -55.5 -18.5t-56.5 -20.5q-29 -6 -47.5 -7t-34 0t-27.5 -1 t-27 -10q-25 16 -54.5 13t-61.5 9q-41 12 -69 22.5t-48 16.5q-68 27 -108 81t-66 97zM47 293q2 -59 32 -105.5t75 -80t99 -56t107 -31.5q48 -7 92 -7q57 -1 108 11q91 20 192 62l-17 23q-23 -13 -74 -13h-9q-47 0 -98 5q-56 5 -104.5 14.5t-66.5 15.5q-41 16 -88 29.5 t-76 29.5q-18 12 -46 25.5t-44 26.5q-20 16 -33.5 33.5t-48.5 17.5z" />
<glyph unicode="U" horiz-adv-x="1452" d="M61 238q2 27 3.5 42t2.5 26t2 22.5t5 29.5q4 27 11 47.5t7 47.5q12 8 28.5 40.5t34 72.5t35 78t29.5 58q14 20 22.5 36t15.5 29t15.5 26.5t24.5 29.5q23 27 44 62t38 51l13 16q14 17 30 36.5t30.5 36.5t16.5 19q18 35 43 63t51 54q16 14 44 48t56.5 68t55.5 60.5t43 28.5 q-4 8 2 20.5t18.5 22.5t26.5 14q6 2 11 2q8 0 14 -4q-8 -12 -30 -30.5t-43.5 -38t-35.5 -39t-10 -31.5h-23q6 -10 -21.5 -42t-62.5 -67.5t-62.5 -68.5t-21.5 -47q-8 0 -24.5 -16.5t-32.5 -38t-29.5 -43t-15.5 -35.5h-23q2 -6 -8 -26.5t-23.5 -43.5t-26.5 -42t-15 -26 q-23 -37 -44.5 -73.5t-37.5 -69.5q-45 -86 -77 -152.5t-32 -134.5q0 -4 -5 -21.5t-5 -27.5t7 -26.5t9 -26.5t6.5 -22.5t9.5 -24.5t8 -21.5t1 -13.5l6 6l29 -31q14 -2 19 -5t7 -7t6.5 -9t14.5 -9q14 -4 21 -4t20 -2q16 -4 25.5 -7.5t18.5 -6.5t19 -4t29 -1q74 0 154.5 31 t160.5 79t154 107.5t133 118.5q27 27 39 68t43 75q23 29 49.5 73t52.5 77q12 12 42 54t65 88t65.5 82t44.5 38q-4 8 10.5 29.5t34 45t39 44t29.5 31.5q23 20 38 37.5t30.5 29.5t36 18.5t51.5 4.5q-4 -8 -9.5 -32t-15.5 -48.5t-25.5 -44t-35.5 -19.5q-2 -35 -32 -80 t-63.5 -87t-60.5 -73.5t-22 -39.5h-23q4 -10 -28.5 -49t-75.5 -86.5t-84 -89.5t-56 -56q-20 -23 -35.5 -33t-31.5 -32q-12 -16 -16.5 -23.5t-7.5 -14.5t-6 -15.5t-13 -24.5q-4 -8 -11.5 -30.5t-12.5 -50.5t-9 -54.5t-2 -44.5l-10 -17q12 -10 18 -23.5t10 -27.5t13.5 -24.5 t27.5 -10.5l-10 -16l41 -17h125q18 14 33.5 17.5t38.5 15.5q23 10 36 19.5t29 19.5q10 6 27.5 19.5t36 26.5t35 23.5t22.5 12.5q-2 6 5 15.5t18.5 18.5t23.5 16t23 9q-4 -29 -12.5 -40t-34.5 -13l8 -16q-10 0 -27.5 -14.5t-39 -32t-44 -34t-39.5 -24.5q-27 -16 -42 -24 t-28.5 -14.5t-28.5 -13.5t-44 -17q-12 -4 -33.5 -7.5t-45.5 -5.5t-42 -3h-11q-9 0 -12 1q-39 6 -59 12.5t-32.5 16.5t-21.5 24.5t-24 36.5q8 33 4 53.5t2 57.5q4 35 16.5 71t16.5 64l-123 -82l-12 -24q-8 4 -29.5 -8.5t-47 -31t-50.5 -36.5t-37 -27q-43 -23 -96 -47t-94 -31 q-29 -6 -45.5 -12t-30.5 -9t-30.5 -5t-43.5 -2q-23 0 -39 3t-43 7q-23 4 -44 15.5t-42 15.5l6 16q-25 2 -41 19.5t-26 40t-14 46.5q-3 16 -4 29q0 6 1 11zM1134 592q0 -9 11 -12q0 2 15.5 18t33.5 36.5t35.5 39t21.5 22.5q35 27 62.5 67t50.5 66q14 18 46 61.5t66.5 91.5 t62.5 88t34 50q-35 -10 -77 -54t-82 -93t-73 -90t-49 -43q4 -10 -15.5 -37t-43 -56.5t-41.5 -58.5t-12 -43q-10 0 -20 -9q-11 -8 -18 -20q-8 -14 -8 -24z" />
<glyph unicode="V" horiz-adv-x="622" d="M76 1335q0 47 5 65.5t38 39.5l41 -86l16 2q6 -27 39 -45.5t73 -30.5t76.5 -17.5t49.5 -5.5h61q8 0 36 5.5t58.5 12.5t58 15t34.5 13q14 -10 30.5 -12.5t30.5 -10.5q15 -8 21 -28q3 -10 3 -25q0 -16 -4 -39q-2 -10 -11 -30.5t-20.5 -41t-21.5 -37t-14 -22.5t-31 -43 t-55.5 -80t-50 -81t-17.5 -44h-22l-97 -166l9 -6h-25q4 -6 -11.5 -35t-37 -63.5t-43 -68.5t-29.5 -54q-10 -20 -22.5 -50t-24.5 -63t-20.5 -65.5t-8.5 -57.5v-20q2 -66 48 -79q13 -4 29 -4q36 0 79 23q16 8 44 30t54.5 44.5t49 39.5t30.5 19l-4 7l76 88l-8 4h22 q-4 8 6.5 24.5t25.5 35t30.5 35.5t23.5 26q16 20 25.5 31.5t23.5 33.5q10 18 17.5 24.5t23.5 26.5q4 6 18.5 25.5t31.5 42.5l41 57q2 10 11 25.5t19.5 33t20.5 35t16 29.5q8 14 10 21.5t4.5 11.5t5.5 10t15 23q16 18 21.5 32.5t17.5 34.5q12 23 26.5 58.5t22.5 58.5 q18 49 30.5 81t19.5 60t9 54q1 13 1 29.5t-1 37.5q0 39 19.5 64.5t38.5 26.5q20 0 28 -30q2 -9 3 -21q0 -31 -15 -83q-4 -14 -15 -49t-26.5 -74t-31 -72.5t-25.5 -48.5q-6 -10 -9 -16t-5.5 -12t-6.5 -14.5t-12 -22.5q-2 0 -7 -10.5t-11 -22.5q-8 -14 -19 -33 q-4 -8 -15 -28.5t-16 -34.5q-2 -10 -7 -16.5t-11 -11.5t-12 -11t-13 -18q-16 -29 -37.5 -65t-35.5 -56q-10 -18 -21.5 -28.5t-17.5 -25.5q-10 -18 -19.5 -31.5t-25.5 -15.5q6 -16 -19.5 -52t-59.5 -75t-60.5 -71.5t-22.5 -42.5q-16 -2 -44 -35t-60.5 -73t-67.5 -74.5 t-61 -36.5q6 -10 -7.5 -19.5t-32 -19t-39 -20.5t-28.5 -25h-35l-16 -23q-6 2 -6 4v3t-2 1h-13h-25.5t-31.5 4t-30.5 17.5t-22.5 40.5q-10 33 -10 59v9q2 28 10 50q8 25 18 61t25 60q12 23 28.5 51.5t28.5 53.5q8 18 27.5 54t42 74t44 71.5t34.5 46.5q18 18 23 27t15 28 q8 14 15.5 23.5t19.5 25.5q6 10 16.5 28.5t21.5 35t22.5 29.5t23.5 15q0 8 11.5 28t26.5 41.5t29.5 39.5t20.5 25q18 23 29.5 40t19 35.5t14.5 38t19 45.5q-12 14 -17 24.5t-12.5 18t-20.5 11.5t-44 4h-72.5t-50.5 -2l-55 2q-16 0 -41 2t-50.5 5t-50 7t-38.5 8 q-12 2 -36 10.5t-46.5 15.5t-40 13t-19.5 4z" />
<glyph unicode="W" horiz-adv-x="1292" d="M72 191.5q0 15.5 2 36t10 65.5q2 8 10 34.5t19.5 57.5t21.5 58.5t15 33.5q4 10 14 38t12 36q8 29 24.5 53.5t20.5 32.5q12 47 38 86t38 76q12 29 43 76t53 90q4 4 11.5 17t17.5 28q10 16 22 34q12 14 17.5 22.5t8.5 16t7 16.5t15 25q20 29 51.5 77t66.5 96.5t67 89 t54 55.5l14 -17q-20 -31 -54 -75.5t-69.5 -94t-66.5 -95.5t-43 -79q-6 -16 -20.5 -38.5t-31 -47t-30.5 -49t-22 -45.5q-10 -27 -28 -51.5t-22 -34.5q-8 -27 -19 -45t-26 -47q-25 -53 -43 -96t-37 -82q-10 -23 -15 -43.5t-13 -42.5q-8 -18 -9 -27.5t-1 -15.5t-3.5 -12.5 t-11.5 -20.5q-6 -8 -9 -32.5t-4 -52.5t-2 -52.5t-1 -32.5q0 -20 2 -41.5t13 -40t32.5 -31t58.5 -12.5h6q20 0 53 11t66 26.5t59.5 32t37.5 28.5q12 14 40.5 36t57 44.5t48 43t13.5 30.5q20 2 40 21.5t37 42t35.5 41t37.5 22.5q-4 12 10 27.5t32.5 32t33 32.5t8.5 31h20 q-2 6 8.5 22.5t25.5 36t31.5 36.5t24.5 26q35 37 48.5 66.5t41.5 53.5q12 12 16.5 19.5t5.5 12.5t2 12.5t11 21.5q12 18 25.5 31.5t21.5 25.5q6 12 17.5 28.5t25 34t24.5 32t15 22.5q4 6 20.5 6t16.5 -26q0 -8 -10 -22.5t-21.5 -30t-19.5 -31t-2 -25.5h-25q6 -14 -16.5 -44 t-34.5 -52q-6 -10 -17.5 -26.5t-21.5 -33.5q-12 -18 -28 -36q-16 -47 -44 -99.5t-57 -103.5q-16 -29 -27.5 -51.5t-20.5 -47t-19.5 -52t-26.5 -64.5q-31 -74 -32 -121q0 -5 1 -11q4 -50 39 -104q23 0 62 19.5t75.5 47t64.5 59.5t32 59q23 2 55.5 43t65 91t59 95t37.5 57 q10 18 36.5 61.5t53 90.5t46 87t13.5 52h25q-4 6 1 19.5t11 29t12.5 28.5t8.5 19q8 23 16 41.5t12 38.5q6 18 16.5 51t14.5 54q2 8 9 20t14.5 26.5t11.5 27t2 20.5q18 0 24.5 5t10.5 11t9 11.5t19 5.5q18 0 19 -20q1 -18 -9 -42q-10 -26 -21 -52t-15 -40q-6 -18 -9.5 -41.5 t-6.5 -46.5t-7 -40t-14 -26q4 -8 6 -8h3t1 -1v-11v-10q0 -41 -1 -58.5t3 -31t14.5 -33t32.5 -62.5q-14 -8 -18 -12t-15 -4q-6 0 -7 2t-2 5t-7 6t-20 3q2 8 -1.5 14.5t-9.5 13.5t-13 17.5t-13 26.5q-4 14 -5 24.5t-3.5 18.5t-7.5 15.5t-17 17.5l-57 -121q-8 -8 -9.5 -11 t-1.5 -5t1 -4t-3 -9q-6 -10 -9 -12t-5 -4t-3 -5t-7 -15q-6 -23 -10.5 -30t-8.5 -12.5t-7 -14.5t-5 -32h-25q4 -12 -7 -33.5t-27.5 -45t-34 -45t-23.5 -33.5q-37 -49 -82 -100.5t-71 -98.5q-10 -14 -35 -42t-55.5 -56.5t-60.5 -50t-48 -23.5l10 -16q-23 -2 -32 -10.5 t-21 -16.5t-33.5 -15t-64.5 -7q-42 29 -50 71q-3 18 -4 37q0 26 6 52q10 46 29 88t25 69q6 25 27.5 71t45 93l42 84t16.5 43q-14 4 -18.5 -4.5t-9.5 -21.5t-15 -26.5t-37 -15.5q4 -6 -17.5 -35.5t-57.5 -70.5t-80 -87t-86 -85t-75.5 -65.5t-47.5 -29.5l6 -14 q-12 0 -28.5 -10t-33 -22.5t-31 -26t-24.5 -19.5q-20 -10 -33.5 -18t-27 -14.5t-27.5 -13.5t-39 -15q-43 -17 -73 -27q-19 -6 -35 -6q-10 0 -20 2q-24 6 -46 27.5t-49 62.5q0 41 -1 60.5t-1 35z" />
<glyph unicode="X" horiz-adv-x="1325" d="M67 -20q1 14 8 35.5t27 52.5q16 27 44 63.5t65 40.5q-6 14 26.5 47t78.5 71t90.5 71.5t60.5 48.5q12 10 55 41.5t93.5 66.5t92.5 62.5t50 27.5l-6 17q25 2 43 18t32.5 37.5t24.5 42t18 33.5q16 35 35 69.5t39 67.5q8 14 26.5 56t35 91.5t30 95.5t13.5 68q0 2 -2.5 11.5 t-4.5 19.5t-4 20.5t-2 12.5q-10 29 -23.5 37t-17.5 34l-82 31q-80 -2 -139 -25.5t-103 -51t-76 -52t-58 -27.5l6 -2l-90 -88l-50 -71l-20 12l12 41h15q2 10 18 34.5t36.5 50.5t39 46.5t24.5 24.5q33 55 68 92t82 88q31 29 52.5 48t41 33.5t39.5 29t49 34.5v-37 q-72 -51 -143.5 -115.5t-118.5 -134.5q6 0 26.5 11.5t45 26t46 27.5t27.5 19q12 6 34 13.5t43.5 14.5t41 13.5t29.5 12.5q47 0 74.5 3t44.5 -3q23 -8 49 -26.5t43 -45.5q25 -46 25 -89q-1 -7 -1 -13q-4 -50 -28 -121q-20 -41 -25.5 -64.5t-21.5 -54.5q-14 -33 -28.5 -62.5 t-31.5 -56.5q-10 -16 -30.5 -46t-38 -59.5t-25.5 -54t4 -28.5q2 8 22.5 26.5t43 40t41 46t20.5 44.5q8 -4 15.5 2.5t15.5 16.5t16 23.5t19 23.5q10 10 32.5 29.5t30.5 34.5q8 12 26.5 34.5t40 43t41 33.5t27.5 9q2 12 30 42t65.5 59.5t74.5 53.5t58 26q-4 12 15 28.5 t47 33.5t55.5 32.5t39.5 23.5q16 8 25.5 16.5t19.5 12.5q23 8 29 8t29 13q27 14 44 19t46 19q8 -14 19.5 -23t11.5 -24q0 -18 -12.5 -31.5t-26 -23.5t-23.5 -21.5t-4 -25.5l-66 -35l-12 -27l-164 -112l4 -10l-139 -97l-18 -20q-12 -4 -38 -22.5t-54.5 -41t-57 -44 t-47.5 -29.5q-25 -14 -29 -22.5t-20 -18.5q-8 -6 -26.5 -14.5t-28.5 -14.5q-23 -14 -48.5 -36.5t-46.5 -31.5q-43 -23 -77.5 -73.5t-62 -110t-46 -119t-24.5 -100.5q-4 -27 -7.5 -41t-5.5 -23.5t-3 -19.5t-2 -27q2 -20 3.5 -28t3.5 -14.5t5 -14.5t10 -29q4 -23 20 -49 t39 -39q10 -4 24.5 -13t18.5 -9q10 -4 16.5 -2t34.5 -6q23 -8 61 1t80 27.5t82.5 44t73.5 50t51.5 47t14.5 34.5l4 -8l78 68q-2 -20 -17.5 -47t-37 -51.5t-46 -42t-43.5 -19.5l8 -12q-10 -2 -24 -11.5t-29.5 -21.5t-30 -23.5t-26.5 -15.5q-10 -4 -25.5 -12t-32 -17.5 t-29.5 -19.5t-18 -19q-20 4 -33.5 3.5t-24.5 -5t-23.5 -8.5t-30.5 -4h-53q-23 0 -51.5 11.5t-52.5 35.5q-6 6 -17 19.5t-23 28t-21.5 26.5t-11.5 18q-4 10 -8 41t-6 67q-1 9 -1 18q0 27 5 51q6 34 25 49l-6 30l32 37l-18 23h25q2 23 12 48.5t23.5 51t27.5 48t25 38.5h-31 l-184 -219l8 -4h-23q6 -12 -15.5 -41t-52 -59.5t-60 -58t-42.5 -42.5q-12 -10 -38.5 -38.5t-57.5 -59.5t-60.5 -55.5t-46.5 -26.5l7 -14q-10 0 -24.5 -9.5t-29 -21.5t-29 -23.5t-24.5 -17.5q-14 -4 -26.5 -11t-28.5 -16q-12 -4 -16.5 -4t-7.5 3t-9 6.5t-20 5.5q2 6 0 15 q-1 6 -1 14v10zM158 37q10 -7 23 -7q19 0 47 14q46 26 104.5 77t122 117.5t119 130t94.5 115t49 71.5l-287 -211l4 -12l-8 8l-180 -145q4 -10 -9.5 -25.5t-30 -36t-31.5 -45.5t-17 -51zM1098 862l346 254l4 -4l-8 16q18 2 70.5 39t110.5 86.5t106.5 96.5t60.5 69h-45 q-20 -14 -25.5 -14t-21.5 -4q-4 -4 -15.5 -13.5t-25.5 -13.5l-46 -34.5t-55 -22.5l7 -12l-121 -82l8 -15l-8 6l-162 -133l-66 -61l-82 -92l-32 -35v-31z" />
<glyph unicode="Y" horiz-adv-x="1357" d="M53 120q-2 11 -2 24q0 19 4 42q4 29 15.5 66t29.5 65q4 8 16.5 28t28 42.5t27.5 43t16 30.5t15.5 25.5t24 32t21.5 32.5t11 31q14 -6 44 24.5t60.5 70.5t55 75.5t31.5 44.5q12 18 43.5 52t65.5 69.5t60.5 68.5t26.5 49h23q2 20 32.5 50t59.5 62t42 61.5t-16 50.5l-73 14 l-330 -8h-8q-23 0 -48.5 6t-48 17t-38 28.5t-15.5 40.5v18q0 18 3 29.5t12 26.5l45 28q12 -12 18 -29.5t15.5 -36t27 -35t51.5 -26.5q23 -6 38.5 -10t30.5 -6t36.5 -2h58.5h4h45h6l228 33q12 -12 23.5 -21.5t18.5 -20t7 -21.5t-8 -30q-8 -23 -29.5 -44t-40.5 -44 q-16 -23 -34.5 -49t-37 -50t-36 -40t-31.5 -18q2 -6 -12.5 -26.5t-34 -43t-39 -41t-25.5 -25.5q-6 -10 -24.5 -32.5t-39 -44t-40 -38t-27.5 -16.5q6 -12 -9 -36.5t-36.5 -52t-42 -52t-29.5 -35.5q-25 -45 -53 -86t-53 -86q-10 -16 -21.5 -43.5t-22.5 -57.5t-18.5 -53.5 t-7.5 -29.5v-17q0 -44 9 -64q10 -24 24 -32t31.5 -11t30.5 -17q6 4 5 5l-1 1l2 -1t12 -1q45 4 111.5 22.5t119.5 57.5q10 6 42 24.5t65 40t56.5 44t19.5 36.5q16 0 44.5 17.5t56.5 41t46.5 46t13.5 32.5l35 19l31 34l-6 5q8 -4 20.5 2t23.5 17t16 23.5t3 20.5q27 2 69 44 t86 91t85 92t70 47q-6 8 2 22.5t22.5 30t30.5 31t24 29.5q10 14 24.5 34.5t30 40t30 34t24.5 16.5l113 158l6 -4q-2 6 3 16t13 20.5t18.5 17.5t16.5 7q15 0 15 -11q0 -4 -2 -9q-7 -21 -28.5 -51.5t-51 -67.5t-57.5 -72t-44 -62.5t-12 -37.5h-25q4 -10 -4 -23.5t-20.5 -29 t-24.5 -31t-18 -25.5q-8 -14 -34 -45t-44 -57q-4 -6 -14.5 -20.5t-21.5 -32t-20.5 -32.5t-11.5 -22q-18 -31 -34.5 -50t-39.5 -52q-2 0 -12 -14.5t-22.5 -33t-22.5 -33.5t-12 -17q-10 -23 -28.5 -46.5t-28.5 -46.5q-23 -47 -58 -98t-63 -117l213 113l6 10l4 -14 q35 25 87 45.5t93 36.5q29 10 46.5 14t33.5 15q12 8 24.5 9t22.5 1t17.5 2t11.5 12h31q14 0 19 -2t5 -16q0 -6 -24.5 -15.5t-55.5 -19.5t-58.5 -17.5t-33.5 -7.5q-43 -10 -85 -28.5t-75 -34.5q-41 -23 -87 -38t-74 -44q-2 0 -22.5 -11.5t-47.5 -24.5t-52.5 -24.5 t-35.5 -13.5q8 -12 6 -17t-9 -7t-15.5 -5.5t-14.5 -13.5l-18 -45q-6 -10 -16.5 -25.5t-20.5 -32t-16.5 -29.5t-2.5 -21h-18q2 -10 -13.5 -42t-38 -70t-45 -75t-30.5 -61q-16 -35 -34.5 -58.5t-29.5 -50.5q-16 -25 -34.5 -59.5t-30.5 -56.5q-6 -23 -20.5 -53.5t-31 -62.5 t-34 -60.5t-31.5 -47.5q-23 -29 -41 -64.5t-47 -58.5q-27 -25 -39 -34t-23.5 -10t-26.5 0t-50 -1l-41 60v159q6 8 12 32t12.5 50.5t12.5 48t12 27.5q10 14 25.5 33.5t23.5 36.5q4 4 5 13t12 24q6 18 13 22t15 15q23 39 51.5 71.5t51.5 73.5q6 12 27.5 30.5t43 38t38 36 t11.5 26.5l5 -6l30 31q8 2 25.5 15t36 28.5t34 31t21.5 23.5q10 8 35.5 23.5t36.5 19.5q12 8 24.5 22.5t30.5 26.5q39 18 64.5 41t44 49.5t36 57t41.5 63.5q2 6 13.5 24.5t25 40t24.5 40t15 26.5q14 37 44 69.5t48 65.5q41 66 81 127.5t79 126.5q-12 -2 -26.5 -10 t-24.5 -20.5t-15.5 -25.5t1.5 -22l-27 -4l4 -10q-18 -2 -33.5 -20.5t-30 -40t-33 -40t-42.5 -20.5l4 -6l-29 -31l4 -8q-23 -4 -33 -9t-2 -20q-18 -4 -27 -10t-1 -24q-16 -2 -38 -20.5t-45.5 -42l-47 -47t-41.5 -32.5q-14 -10 -22.5 -19t-16.5 -16.5t-19.5 -16.5t-29.5 -19 l-38 -28.5t-48 -31.5q-16 -10 -44 -35.5t-44 -33.5t-43 -20.5t-45 -22.5q-45 -31 -90.5 -48.5t-104.5 -21.5h-31h-10q-14 0 -22.5 4t-16.5 9t-19.5 9.5t-29.5 6.5q2 6 -4 17t-14.5 29.5t-12.5 44.5zM150 -735l8 -17q0 -18 -2 -28.5t-2 -19.5t4 -21.5t14 -32.5q16 -22 36 -22 q9 0 18 4q32 14 66 54t67.5 95t62.5 109.5t48 94.5t26 50q27 35 38 66.5t29 62.5q8 8 17.5 24.5t9.5 22.5q0 16 9 29.5t24 40.5q14 18 21 23t22 34q8 16 12 24.5t7 14.5t7 13.5t15 21.5q6 6 14 21.5t17.5 33t17.5 33.5l12 24l-4 5l-109 -72l11 -12q-10 0 -38 -18.5 t-62 -46.5t-70.5 -60.5t-67.5 -62t-49.5 -53.5t-16.5 -30q-25 -4 -58.5 -52t-64 -112.5t-51.5 -127.5q-20 -59 -20 -93v-6z" />
<glyph unicode="Z" horiz-adv-x="1312" d="M33 -817q0 29 2 61.5t16 63.5q4 8 11.5 28.5t14.5 42t14 40t13 26.5q20 35 42 69.5t38 69.5q6 12 20.5 28.5t28 32t21.5 30t4 24.5q8 0 26.5 17.5t38 41t36 46t22.5 32.5q25 39 66.5 65.5t70.5 55.5q12 12 30.5 28.5t39 33t41 29.5t37.5 22q20 10 37.5 20t44.5 27 q25 16 44 19t11 22q12 2 43 14t65.5 29.5t64.5 36t38 30.5q0 55 -3 99.5t-11.5 82t-19.5 74.5t-30 78q-6 14 -23.5 52t-42 78t-51 71t-49.5 33l13 55q12 2 58 22.5t101.5 48t105.5 55t71 42.5q14 10 60 34.5t96 53.5t89 57.5t39 46.5q0 16 -18.5 21.5t-34.5 9.5l-21 -16 l-434 -25l-30 4h-54q-53 0 -126.5 5t-145.5 28q-55 18 -81 49t-26 59q0 26 22 46q20 18 53 18h7q2 -25 31 -49.5t67 -44t75.5 -31.5t56.5 -12q4 -2 20.5 -4t36 -5.5t38.5 -5.5t30 -2h49t51 -2h31h13q37 0 87 10q60 12 121 27t116.5 29t88.5 14q48 0 62 -24q11 -17 10 -36 q0 -8 -2 -16q-6 -28 -25 -51.5t-37 -25.5l8 -15q-6 0 -48 -23.5t-91 -52t-93 -55t-59 -35.5q-12 -8 -58 -31.5t-96 -50t-90 -50t-40 -31.5q0 -2 6 -11.5t16 -19.5q8 -12 23 -29q10 -23 15 -29t22 -28q14 -18 22 -33.5t13.5 -31t9.5 -31t12 -31.5q31 -78 31 -155t2 -134v-25 l2 -51q35 23 54 27t52 14q8 2 10.5 5t4.5 5.5t7 4.5t17 4q20 2 31.5 3t21.5 5t39 17.5t59.5 21.5t54.5 6t26 -27l-371 -110q-12 -20 -17.5 -44t-8.5 -49.5t-7 -51t-14 -50.5q-4 -20 -14.5 -49t-20.5 -61q-8 -23 -5 -27t-5 -18q-4 -10 -11.5 -20.5t-11.5 -25.5 q-35 -100 -86 -195t-106 -181q-10 -14 -34 -41t-53.5 -61t-64.5 -69.5t-65.5 -67.5t-56 -55.5t-38.5 -29.5q-20 -14 -44.5 -31.5t-51.5 -33t-52.5 -27.5t-45.5 -19q-12 -4 -30 -8t-36 -5h-17.5h-16.5q-16 1 -23 7q-23 10 -50.5 28.5t-19.5 39.5l-20 -2v61zM127 -740v-17 q0 -25 4 -48q11 -81 71 -97q16 -4 33 -3q46 0 99 33q8 6 13 7t9 3t12.5 5t24.5 15q8 6 29.5 20.5t28.5 18.5q29 16 55 45t49 49q47 47 101.5 107.5t78.5 107.5q16 29 41 53.5t37 53.5q6 14 14.5 29.5t17.5 29t16 24.5t9 19q16 41 26.5 62.5t21.5 50.5q4 12 9 29.5t9 34 t8 29.5t4 16q14 27 24.5 66.5t17.5 78.5t12.5 69.5t11.5 41.5l-25 20q-31 -23 -75 -35t-76 -37q-4 -6 -24.5 -19t-45.5 -26.5t-45.5 -25t-26.5 -11.5l9 -14q-16 0 -51.5 -24.5t-79.5 -61.5t-90 -81t-81.5 -85t-58 -73t-16.5 -44q-18 -2 -43 -30.5t-47.5 -66.5t-40 -78 t-25.5 -62q-10 -20 -19.5 -49t-16.5 -62.5t-9 -67.5z" />
<glyph unicode="a" horiz-adv-x="714" d="M43 70q0 53 44 111.5t110.5 106.5t142.5 78.5t139 30.5h23h49q-10 -41 -43 -76.5t-51 -74.5q-11 -23 -29 -65q-17 -38 -16 -80v-9q0 -23 21.5 -43t47.5 -18h51q6 0 32 8t56.5 19.5t61.5 22.5t49 19l-8 -28q-16 -8 -38.5 -17.5t-47.5 -19.5t-48.5 -18.5t-37.5 -12.5 q-68 -21 -109 -21q-13 1 -23 3q-43 8 -53 40q-5 14 -4 32q0 20 6 46q12 48 35 101l-32 -21l-29 -28l4 -6q-10 -2 -27.5 -14.5t-35 -28l-35 -31t-27.5 -21.5q-39 -27 -69.5 -38t-51.5 -25l-34 16l-21 15zM106 92q0 -27 20.5 -32t43.5 -5q31 20 54.5 35.5t45 31t42 34 t46.5 45.5l82 82q16 16 24.5 26t14.5 18.5t12.5 17.5t16.5 24q-9 3 -23 3q-12 0 -27 -2q-34 -5 -73 -16.5t-76 -27t-57 -29.5t-45 -37.5t-47.5 -52.5t-38 -59.5t-15.5 -55.5z" />
<glyph unicode="b" horiz-adv-x="784" d="M2 100l6 29q63 41 110.5 75t102.5 70q57 37 110.5 83t98.5 94q4 6 13.5 19t18.5 27.5t17 28t13 19.5q2 8 13 23.5t21.5 30.5t17.5 29.5t3 20.5q23 2 37 29t26 51q10 23 26.5 38t33.5 42q8 12 29.5 41t33.5 47q14 16 34.5 44t43.5 30l-6 4l33 51l-7 4h23q-4 12 15.5 42 t46 60.5t53 55t37.5 24.5q0 12 22.5 40t52 56.5t58 50t41.5 21.5h20q1 -9 1 -18q-1 -42 -17 -74q-20 -39 -43 -80q-16 -27 -29.5 -47t-24.5 -37q-14 -20 -28.5 -42.5t-28.5 -45.5q-29 -37 -64.5 -77.5t-58.5 -73.5q-10 -16 -27.5 -37t-37 -42.5t-38 -42t-30.5 -34.5 q-25 -23 -65.5 -64.5t-85.5 -84.5t-86 -81t-64 -53q-29 -16 -44 -33.5t-26.5 -36t-19.5 -39t-21 -40.5q-14 -23 -22 -50.5t-13 -55t-8.5 -51t-9.5 -36.5q14 0 24.5 -5t19.5 -6t18.5 5t19.5 25q14 29 16.5 49.5t22.5 32.5q2 20 22.5 55t36.5 51q16 18 26.5 28.5t21 18 t23.5 13.5t36 16q12 -31 20.5 -52.5t20.5 -36.5t34.5 -23.5t65.5 -10.5h8q22 0 61 8q46 10 89 21l-25 -35l-46 -12t-40 -10q-39 -6 -69 -6h-17q-36 2 -64 14t-50.5 30.5t-48.5 42.5l-41 -26l-64 -86q6 -12 -2 -39t-20.5 -53.5t-21.5 -48t-7 -27.5l-74 -33l-41 37q0 20 3 45 t6 47.5t6.5 39.5t7.5 24q4 8 14 28.5t21.5 43t18.5 41t5 22.5l-153 -105l4 -8q-6 -2 -33 -17.5t-59.5 -35t-61.5 -38.5t-41 -28zM489 500q37 27 96.5 81t126 123.5t135 149.5t126 155.5t96.5 142.5t49 110q-5 2 -12 2q-12 0 -26 -8q-22 -12 -41 -30t-33.5 -40.5t-14.5 -40.5 l-2 -33l-37 16l-59 -67l8 -8q-12 -2 -27.5 -17.5t-32 -37t-31.5 -43t-28 -33.5q-2 0 -17 -20.5t-33.5 -45.5t-36 -46.5t-19.5 -27.5q-6 -12 -36 -54t-63.5 -89t-60.5 -88t-27 -51z" />
<glyph unicode="c" horiz-adv-x="716" d="M59 236l23 30q12 4 14 4q55 12 93 33t76 42.5t86 37.5t124 16l21 -43q-8 -23 -10.5 -32t-4.5 -15t-9 -13l-26 -26q-4 -4 -15 -13t-24.5 -19.5t-24.5 -17.5t-15 -7q-18 0 -10 14.5t25 34t36.5 37.5t23.5 29q8 18 0 27.5t-24.5 11.5t-38 -2.5t-39.5 -10.5 q-41 -14 -68.5 -36.5t-52.5 -53.5q-20 -25 -29.5 -43t-13.5 -33.5t-8 -29t-14 -29.5q8 -12 11 -22.5t6 -19.5t12.5 -20.5t31.5 -25.5l64 -2q41 0 68.5 3t62.5 19q8 4 23.5 8.5t31.5 9.5t29.5 9t19.5 8q33 27 84 48.5t100 48.5l-10 -19l-186 -106q-27 -4 -59.5 -20.5 t-67.5 -27.5q-27 -6 -56.5 -14t-50.5 -12q-26 -3 -48 -3q-59 -1 -86 23q-36 32 -36 101q0 16 12.5 42.5t27 51t25.5 43t11 22.5q-6 2 -20.5 -3t-31 -12t-32.5 -15t-29 -8h-2z" />
<glyph unicode="d" horiz-adv-x="878" d="M-457 -51h21l-2 -23h-19v23zM57 37q4 16 7.5 31.5t11.5 29.5q8 16 23.5 35t28.5 35t19.5 29.5t-2.5 19.5l-69 -39l10 19q0 2 2 2q37 23 98.5 60.5t129 74.5t133 64.5t110.5 27.5q-18 -29 -49 -39t-66 -29q-8 -4 -30.5 -14t-47 -21.5t-45 -19.5t-24.5 -8l8 -14 q-23 -2 -58.5 -32t-65 -67t-42 -72.5t14.5 -50.5q49 12 87 37t71.5 54.5t65.5 57.5t71 44l2 22l16 7l-2 8q12 0 31.5 15t40 35.5t39 41t24.5 31.5q8 12 11 19t5 13.5t7.5 13.5t17.5 23q12 14 16.5 22.5t5.5 14.5t3 13.5t12 19.5q25 29 50.5 72t43.5 69q27 39 51.5 73 t50.5 75q12 18 40 57t60 81t61.5 79t43.5 53q12 12 27.5 32.5l31 41t29 37t19.5 20.5q8 8 26.5 25.5t37 38t32.5 41t14 32.5l60 23q19 -17 20 -40q0 -17 -7 -35q-7 -20 -19.5 -41t-24.5 -40q-10 -14 -15 -22.5t-10.5 -15.5t-11.5 -16t-14 -24q-4 -4 -11.5 -15t-16.5 -23.5 t-15 -22.5l-6 -10q-35 -43 -59.5 -77t-57.5 -71q-10 -10 -29.5 -31.5t-38 -45t-33 -43t-10.5 -27.5h-22q4 -10 -13.5 -34t-41 -51.5t-48 -53t-34.5 -35.5q-14 -14 -35 -39t-42.5 -48.5t-41 -41t-31.5 -19.5q2 -6 -3 -14t-14 -17.5t-18.5 -17.5t-13.5 -12q-12 -10 -30.5 -39 t-28.5 -64q-20 -60 -20 -105q0 -8 1 -16q4 -51 33 -102l106 -59h59.5t41 2t38 4t50.5 6q2 2 8 2l-29 -37q-48 -2 -114 -13q-27 -4 -52 -4q-37 0 -71 9q-59 20 -86 55t-29 95q0 12 1 17t3 10t3 10.5t1 15.5q-2 29 5.5 56.5t17.5 49.5l-6 8l-72 -63l-20 -4l-31 -47l-84 -62 v-14q-23 -2 -52.5 -30.5t-56.5 -43.5q-8 -4 -25.5 -13t-36 -19.5t-33.5 -19.5t-21 -11q-16 10 -36 17q-17 6 -17 21q0 3 1 7zM674 487q27 18 54.5 47t54 60t51 61.5t49.5 55.5q6 6 20.5 22.5t29.5 34.5t28.5 34.5t17.5 22.5q29 41 53.5 63.5t46.5 57.5q23 39 57.5 80 t63.5 86q16 23 29.5 48.5t19.5 41.5q6 12 15.5 22.5t14.5 20.5q4 7 4 14q0 3 -1 5q-2 10 -18 22l-351 -434l-10 -10l-139 -205l6 -4l-14 -6z" />
<glyph unicode="e" horiz-adv-x="417" d="M-39 14l25 31q41 14 73.5 32.5t57.5 22.5l-6 2l59 144q12 2 34.5 26.5t51.5 52t66.5 50t80.5 22.5h23q2 -12 4 -16t2 -21q0 -23 -20.5 -47t-36.5 -26l8 -15q-31 -4 -54.5 -34.5t-43.5 -47.5q-27 -20 -51.5 -31.5t-49.5 -37.5q-23 -23 -7 -48.5t42 -47.5q6 -6 23.5 -13.5 t36 -13.5t34 -10t19.5 -4h45l-15 -15q-12 -10 -15 -12q-2 -1 -3 -1h-1l-3 3t-14 2q-51 0 -82 2t-52.5 13.5t-41 35t-48.5 66.5zM190 152q25 14 57 36.5t59.5 50t45.5 59.5q16 29 15 56v6h-23q-20 0 -50 -25.5t-56 -60.5q-24 -34 -40 -69q-10 -23 -11 -39q0 -8 3 -14z" />
<glyph unicode="f" horiz-adv-x="862" d="M-418 -946q10 16 12.5 26.5t3.5 16.5t2 13t7 18q10 16 18 31.5t21 37.5q20 45 33.5 68.5t35.5 58.5q2 2 11.5 16.5t19.5 33t20.5 36t14.5 27.5q16 33 33.5 54.5t38.5 68.5q0 2 12 20.5t29 40.5q18 25 40 60q18 23 41 63.5t33 60.5q16 27 40 58t47.5 62.5t45 62t35.5 57.5 l123 172q-10 0 -46 -21.5t-79 -47t-83 -50t-54 -32.5q-12 -8 -44 -22.5t-70 -29t-77 -26t-63 -11.5l18 19q37 6 85 24.5t96.5 41t87.5 44t57 31.5q10 6 34.5 21.5t56.5 37t64.5 47t59.5 49t42 43t11 32.5q14 2 23.5 11t15.5 21.5t13.5 26.5t21.5 25l-2 34q20 2 56 43 t73 92.5t67.5 99.5t43.5 66q59 78 116.5 157t114.5 157q12 23 30.5 40t43.5 46q10 14 13 20t4 9.5t4 5.5t16 8q10 6 12 9t3 6t3 8t10 16q14 14 26.5 24.5t23 18.5t20.5 16t24 21q23 18 37 19h4q12 0 20 -7q9 -8 14 -20.5t11 -16.5q-12 -16 -17 -41t-11 -37 q-10 -23 -23.5 -39t-21.5 -37q-6 -16 -21.5 -35.5t-31 -40t-24.5 -38t-5 -25.5l-86 -84l-55 -57l-209 -248l-7 8q2 -10 -11 -30.5t-32.5 -40t-42 -36t-36.5 -16.5l6 -14q-8 -2 -28.5 -20.5t-46.5 -43t-51.5 -50t-45.5 -42.5q-16 -16 -46 -42.5t-57.5 -55.5t-47 -57.5 t-13.5 -48.5l-14 2l-17 -35q10 -6 15.5 -14.5t10.5 -18.5t14 -20.5t28 -20.5q23 -10 59.5 -21.5t52.5 -11.5h39q18 0 50 9.5t69 21.5t74 24.5t63 20.5q57 16 123 50t135 63q25 10 49.5 22.5t49.5 24.5l-29 -43q-39 -10 -86 -32.5t-70 -33.5q-49 -23 -94 -43t-80 -35 q-51 -20 -96 -35.5t-91 -26.5t-95.5 -16.5t-108.5 -5.5l-90 39l8 -6l-26 -188l-5 -8q0 -12 2.5 -15.5t6.5 -7.5q-10 -6 -27.5 -42t-36 -77t-33 -74.5t-16.5 -37.5q-29 -53 -69 -113.5t-81 -101.5q-16 -16 -25 -26.5t-16.5 -22t-15.5 -22.5t-22 -26q-23 -25 -46.5 -46 t-48.5 -48q-8 -8 -22 -19.5t-30.5 -22.5t-32 -22.5t-25.5 -21.5q-33 -27 -55 -33q-4 -1 -8 -1q-20 0 -48 20zM-336 -844l14 -30h39q23 14 39.5 25t38.5 26q16 12 23.5 21t11.5 16.5t10 11.5t23 6q0 2 21.5 32.5t48 66.5t51 68t30.5 38q10 12 32 40.5t42.5 62.5t35.5 67 t15 53q18 12 41 65.5t39.5 119t20.5 127.5q1 10 1 20q0 48 -18 74q-29 -18 -50 -57.5t-44 -69.5q-8 -12 -20.5 -32t-25.5 -40.5t-25.5 -36.5t-20.5 -25q-14 -16 -34.5 -56t-43.5 -68q-27 -37 -45 -67.5t0 -59.5q-55 -39 -89 -88.5t-67 -110.5q-16 -33 -26.5 -51.5 t-26.5 -53.5q-2 -4 -7 -18t-11 -29.5t-13.5 -30t-9.5 -16.5zM469 410q23 2 57.5 33.5t72.5 72.5t73 79t57 54l-8 23l24 -8q6 12 22.5 31.5t35 41t36 41t27.5 31.5q29 29 58.5 74t58.5 73q61 66 105.5 140.5t85.5 165.5q-10 8 -13.5 11t-13.5 3h-10q-14 0 -35 -17.5 t-39.5 -39t-30.5 -42t-8 -26.5q-12 0 -29.5 -17.5t-34 -39t-32 -42t-25.5 -30.5q-8 -8 -24.5 -29.5t-32 -45t-26.5 -44t-9 -26.5h-20q2 -6 -18.5 -39t-47.5 -72t-53.5 -75t-34.5 -50q-10 -10 -23.5 -25.5t-27 -32t-24.5 -30.5t-13 -23q-4 -8 -13.5 -23t-21.5 -33.5 t-24.5 -35t-20.5 -28.5z" />
<glyph unicode="g" horiz-adv-x="636" d="M-457 -842q2 2 6.5 23.5t9.5 48.5t10 51.5t9 34.5q4 8 11.5 24.5t16.5 33t18 31.5t18 26q20 29 35.5 57.5t43.5 54.5l23.5 23.5t31 32t25 32t6.5 21.5q12 0 42 23.5t66 53t68.5 57.5t49.5 38q14 8 46 26.5t67.5 37t69.5 32.5t56 14l174 238l-6 6l-98 -61l4 -11l-92 -47 l4 -14q-18 0 -49 -15.5t-60.5 -26.5t-55 -12t-34.5 25q-5 17 -5 32q0 26 16 46q24 31 49 58v-5h12l78 107q90 47 176 92t160 51l73 2l15 -2l-117 -164l-88 -120l6 -7q-12 0 -29.5 -20t-35 -46t-30.5 -50.5t-15 -32.5h30q4 0 17.5 3t30 6t34 4t27.5 -5q16 -10 2 -30.5 t-43 -20.5q-53 -2 -107.5 -15.5t-85.5 -66.5q-10 -16 -18 -22.5t-14 -20.5q-4 -10 -10.5 -23.5t-8.5 -17.5q-12 -16 -33.5 -43t-40.5 -31l7 -4l-123 -184l6 -6q-23 0 -32 -23.5t-19 -38.5q-6 -12 -25.5 -33.5t-36.5 -43.5q-4 -6 -17.5 -27t-29.5 -43.5t-30.5 -44 t-18.5 -29.5q-6 -12 -17.5 -32.5t-26.5 -42t-29.5 -42t-26.5 -32.5q-27 -27 -51 -33q-10 -3 -18 -3q-12 0 -22 5q-16 8 -26 27.5t-10 48.5q0 4 -2 15t-2 22q0 8 2 8h2l-2 4t-13 16zM-397 -870q39 -27 61 -32q9 -2 15 -2q13 0 22 6q14 9 26.5 32.5t30.5 56.5q6 10 25.5 35.5 t39 54.5t35 53.5t11.5 34.5h22q-4 6 15.5 39t47.5 73t55.5 76.5t41.5 51.5q16 20 34.5 52t47.5 65q23 25 26 37t13 28q16 20 26.5 34.5t24.5 33.5q-12 8 -44 4t-38 -33q-18 8 -54 -12.5t-76 -48t-75.5 -53t-54.5 -27.5l8 -15q-23 -4 -29.5 -9t1.5 -21q-27 -2 -56.5 -32 t-57.5 -68t-49.5 -73.5t-29.5 -50.5q-27 -43 -38 -90t-15 -87t-5 -70.5t-7 -42.5zM131 55l31 -16q18 14 36.5 16t49.5 23q27 16 47 27.5t47 27.5q16 8 40 29.5t46.5 43t44 39t35.5 19.5q-14 29 29 29l-7 6l52 61q-8 1 -17 1q-32 0 -69 -12q-47 -15 -76 -27l-31 -15.5 t-58.5 -28t-56.5 -26.5l-26 -12l8 -15q-12 -2 -29.5 -13t-32 -25.5t-23.5 -29t-5 -22.5h-21q6 -12 4 -16t-6 -6t-8 -6.5t-4 -16.5v-35z" />
<glyph unicode="h" horiz-adv-x="874" d="M8 88q4 27 35 48.5t51 31.5q29 16 47.5 33.5t46.5 34.5q12 8 39 30.5t52.5 47t44 49t12.5 36.5q12 2 24.5 16.5t23.5 33t20.5 36t15.5 23.5q29 35 45 62.5t43 62.5q27 33 48.5 60.5t37.5 54.5q8 8 20.5 27.5t25.5 37.5t27.5 32.5t26.5 16.5q-2 4 4.5 14.5t14.5 22.5 t15 23.5t11 15.5q2 4 11.5 15.5t18.5 23.5t18.5 23.5t13.5 15.5q29 31 51 67.5t57 73.5q27 29 64 68t80 73.5t89 59t91 24.5q25 0 29 -17q1 -5 1 -12q1 -14 -5 -33q-8 -28 -24.5 -59.5t-34 -60.5t-32 -50.5t-18.5 -25.5q-8 -10 -22.5 -26.5t-28 -33.5t-24.5 -32.5t-15 -19.5 q-18 -29 -47 -59.5t-51 -59.5q-16 -20 -52.5 -58t-81.5 -83t-95 -93.5t-97 -90.5t-85 -72.5t-61 -42.5v-17q-8 0 -21 -6t-26.5 -15t-20.5 -18.5t-3 -17.5q-12 0 -27.5 -9.5t-31 -20.5t-29 -22.5t-21.5 -19.5q-29 -29 -41 -50t-24 -38q-12 -12 -35 -36.5t-45.5 -52.5 t-35.5 -53.5t-7 -39.5l475 319l12 -14q-20 -33 -44.5 -54.5t-45.5 -62.5q-12 -23 -28.5 -59.5t-16.5 -59.5q0 -8 8 -23t19.5 -30.5t25 -27t25.5 -11.5q25 -4 42 -4t33.5 3t34 8.5t41.5 11.5q25 6 54.5 17t60.5 25.5t60.5 31t54.5 32.5v-28q-23 -8 -42.5 -24.5t-47.5 -27.5 q-20 -4 -53 -16t-48 -20q-31 -14 -61.5 -22.5t-57 -14.5t-47 -10.5t-28.5 -10.5q-23 12 -37 9t-35 8q-29 14 -36 22t-25 21q16 25 10 51t10 61q2 6 11.5 20.5t18.5 32t15 33t4 21.5l-69 -31l6 -10q-16 -2 -64.5 -34t-102.5 -70t-102.5 -68.5t-62.5 -30.5t-14 23q35 49 63 88 q25 35 47.5 65.5t26.5 36.5q-16 6 -33.5 -4t-35 -25.5t-36 -29t-34.5 -15.5l8 -14zM375 389l71 41q-4 12 24 34.5t61.5 47.5t61.5 47.5t23 34.5q18 2 42 25.5t49.5 50t50 49t43.5 24.5q-4 8 4 22.5t21.5 28t28.5 27t24 23.5q8 8 20 23.5t26.5 30.5t28 27.5t21.5 12.5l-2 6 l16 8q-6 16 16.5 37t38.5 37q18 16 27.5 40t24.5 46q8 10 24.5 31.5t30.5 47.5t25.5 52.5t11.5 50.5q0 30 -20 30h-2q-22 -1 -49 -16.5t-54 -33t-39 -19.5l8 -14q-25 -2 -31 -8t0 -23q-18 -4 -33.5 -15t-9.5 -28h-22q4 -8 -3 -20t-19.5 -26.5t-24.5 -28t-19 -23.5 q-4 -4 -14 -17.5t-21.5 -28.5t-21.5 -27.5t-12 -16.5q-41 -43 -81 -104.5t-75 -98.5q-29 -29 -40 -52.5t-25 -41.5q-10 -12 -20.5 -22.5l-24.5 -24.5q-12 -12 -15.5 -17.5t-3.5 -8.5t-1 -6t-9 -13q-14 -16 -34.5 -43t-40 -57.5t-36 -58.5t-20.5 -42z" />
<glyph unicode="i" horiz-adv-x="563" d="M4 172v16q6 6 14 11q35 23 69 41t65 47q8 6 24.5 20.5t34.5 29.5t35.5 27.5t27.5 12.5q0 16 3.5 22.5t8.5 8.5t13 4t20 10q-2 -18 -11 -32.5t-19 -27t-20.5 -23.5t-12.5 -22q-8 -27 -22.5 -48t-22.5 -44t-13 -53.5t-1 -59t24.5 -49t63.5 -20.5h8q12 0 34.5 5t48 12.5 t49.5 15.5t40 14q4 2 18.5 9t30.5 15.5t29.5 15.5t17.5 7q6 4 12.5 5t10.5 3v-24q-16 -8 -34 -15.5t-34 -11.5q-4 -2 -17.5 -7t-27.5 -11t-26.5 -11.5t-16.5 -7.5q-16 -8 -25.5 -11t-18.5 -5t-19.5 -5t-30.5 -9q-14 -6 -41 -10.5t-54.5 -4.5t-51 5.5t-31.5 17.5 q-6 10 -14.5 24.5t-8.5 36.5v23v8q-1 37 17 71q20 38 49 78q-14 6 -38 -8t-51.5 -33.5l-55 -39t-50.5 -23.5zM458 685q-1 3 -1 6q0 15 18 44q12 20 15.5 28.5t7.5 11.5t13 7t32 21q25 -31 29 -47q1 -5 1 -9q0 -9 -5 -16q-7 -10 -24.5 -23t-37.5 -42q-43 4 -48 19z" />
<glyph unicode="j" horiz-adv-x="380" d="M-633 -1040q10 18 7 44.5t8 53.5q8 23 14 32t14 25q8 18 12.5 32.5t9.5 27t12 26t21 31.5q10 16 29 52t41.5 73t46 65.5t41.5 28.5q-6 12 19.5 44t68.5 73t95.5 86t101.5 84t87 66.5t52 33.5q29 10 60.5 20.5t54.5 45.5q4 6 4 12t2 12t6 15.5t14 25.5q8 10 13.5 24.5 t9.5 26.5q29 59 71 129t76 123l-30 -2q-59 -41 -124 -87t-143 -87l2 29q10 4 18.5 10t24.5 19q16 6 44 21t58 33.5t55.5 36t37.5 27.5q18 23 38.5 34t47.5 38q16 20 34.5 38.5t41.5 35.5l8 -41l-25 -6q2 -8 -5 -23.5t-18 -33t-23.5 -35t-18.5 -29.5q-8 -10 -11 -14.5 t-5.5 -8.5t-6.5 -10t-12 -20q-14 -16 -18 -21.5t-4 -7.5v-6t-7 -19q-6 -14 -28.5 -47t-46 -68.5t-40 -67.5t-9.5 -44q12 -6 52 15.5t84 40t77.5 21.5t33.5 -36l-2 -25q-12 0 -59 -14t-100.5 -34.5t-99.5 -43t-58 -39.5l-152 -241l8 -17q-12 -14 -28.5 -40.5t-32.5 -57.5 t-30.5 -60.5t-22.5 -50.5q-10 -16 -24.5 -40.5t-32 -51t-36 -53.5t-34.5 -47t-31.5 -51t-26.5 -52q-10 -29 -27.5 -53t-27.5 -47q-31 -66 -74 -95.5t-122 -29.5q-20 29 -28.5 50.5t-12.5 38t-7.5 30.5t-11.5 27zM-559 -1040q0 51 3 79.5t9 51t15.5 47t21.5 65.5 q8 20 16.5 33.5t16.5 24t16 22.5t15 33q2 8 13 22.5t23.5 32t19.5 32.5t3 26q16 2 42 27.5t54.5 57t57 63.5t51.5 46q14 8 48 36t72.5 54.5t72.5 45t50 12.5q6 -10 -10 -39t-36.5 -63t-36 -64.5t-9.5 -44.5q-12 -8 -31.5 -37t-44 -69t-50 -86t-49 -89t-42 -76.5t-28.5 -48.5 q-16 -25 -28.5 -43t-29.5 -53q-16 -25 -29.5 -55.5t-19.5 -40.5q-23 -29 -52.5 -50.5t-56.5 -26.5q-7 -1 -13 -1q-20 0 -35 12q-19 17 -19 64zM535 639q14 31 17 47t8 28.5t19.5 24t49.5 27.5l33 -35q-12 -25 -22.5 -49.5t-25 -40.5t-33.5 -18h-4q-18 0 -42 16z" />
<glyph unicode="k" horiz-adv-x="733" d="M4 113l4 24q18 8 57 30.5t83.5 49.5t85 54.5t61.5 50.5q16 14 48 57t62.5 89t52 85t17.5 49q14 0 22.5 9.5t13.5 21.5t10 25.5t11 21.5q8 12 28 38.5t24 39.5q12 25 24.5 43t25.5 36.5t27.5 38t28.5 46.5q16 29 32.5 48t27.5 44q8 20 20 37.5t31 44.5q8 12 25.5 38.5 t38 53t39 45t28.5 14.5l-18 -29q-17 -28 -44.5 -70t-60.5 -92t-61.5 -94t-50 -75t-25.5 -37q-10 -14 -33 -50t-52.5 -82t-61 -96.5t-58.5 -92.5t-43 -71l-16 -28q6 -2 30.5 14.5t58 44t71.5 63.5t71 68.5t55.5 60.5t24.5 42q16 2 50 37t71 81t67.5 89t38.5 59q18 35 40 73 t40 78t28 84q8 32 8 66q0 13 -1 27h-10q-35 -1 -53 -13q-22 -14 -50 -34q2 25 20.5 48t44 41.5t53.5 31t48 12.5l29 -25v-20q-1 -50 -9 -87q-10 -44 -29.5 -82t-47 -79t-58.5 -96q-14 -27 -46.5 -69t-70.5 -86t-74 -85t-58 -65q-39 -41 -74 -78t-72 -71t-74.5 -66.5 t-83.5 -69.5q-37 -33 -78.5 -71t-58.5 -68q-16 -27 -26.5 -38t-26.5 -38q-20 -25 -33.5 -46.5t17.5 -25.5q6 16 35.5 47t72.5 68t93.5 73.5t96.5 67.5t83.5 51.5t54.5 20.5h39q20 0 27.5 -17.5t17.5 -29.5l-10 -45q-8 2 -15.5 -4.5t-15.5 -18.5t-19.5 -25.5t-27.5 -23.5 q-23 -10 -46.5 -33.5t-45.5 -36.5l-32 -16t-61.5 -27.5t-67.5 -22.5t-48 -3q-6 -12 -10.5 -20.5t-2.5 -26.5q0 -77 46 -99q30 -14 69 -15q21 0 43 4q66 11 139.5 44t130.5 62l-94 -76q-54 -29 -124 -53q-59 -20 -121 -20q-10 0 -21 1h-59l-37 19l-17 14q4 10 -4 41t-4 53 q2 16 8 25.5t11.5 16.5t10.5 15.5t5 22.5q14 0 42 8t59.5 19.5t59 25t42.5 23.5q25 23 40 35t44 34q23 20 30 29.5t8 16t0 12.5t5 20l-117 -16l-147 -113l6 -10l-82 -51l-31 -31l-33 -37l4 -4q-23 -4 -31 -10t1 -23q-16 -2 -34 -21.5t-35 -41t-33.5 -36.5t-33.5 -7l-6 4 l150 248l-47 -8l10 -13q-2 0 -26.5 -16.5t-55.5 -35.5t-58.5 -36.5t-35.5 -21.5h-31z" />
<glyph unicode="l" horiz-adv-x="811" d="M4 119l92 71q29 18 60.5 41t56.5 35q43 23 59.5 42.5t36.5 60.5q18 39 34.5 64.5t25.5 53.5q8 25 35.5 66t41.5 65q8 18 27 51t42.5 69t46 68t36.5 48q29 29 43 55.5t45 61.5q29 29 49.5 57.5t46.5 58.5q14 14 22.5 26.5t14.5 21.5q10 10 25.5 24.5t27.5 28.5 q25 31 50.5 55.5t54.5 52.5q6 6 23.5 21.5t36 31t34.5 29t21 15.5q16 4 34.5 14t28.5 14q19 5 23 7q2 1 3 1q2 1 4 -1q3 -2 8 -5.5t24 -5.5q-6 -12 -5.5 -20t0.5 -16.5t-2 -19.5t-10 -30q-12 -27 -26.5 -55.5t-22.5 -44.5q-10 -18 -25.5 -47t-34 -56.5t-37 -48t-34.5 -22.5 q2 -6 -10.5 -24.5t-28.5 -40t-33.5 -42t-25.5 -28.5q-12 -12 -27.5 -31t-32 -37t-32 -31.5t-27.5 -15.5q2 -10 -8.5 -24.5t-26.5 -30t-31.5 -30.5t-21.5 -26q-6 -10 -18.5 -25.5t-26 -30.5t-27.5 -29.5t-25 -22.5q-16 -12 -47.5 -44t-66.5 -65t-65.5 -58.5t-43.5 -27.5 l8 -14q-23 -2 -32 -10.5t-14 -20.5t-6 -27.5t-5 -31.5q-4 -14 -6 -23.5t-6 -27.5q-2 -12 1 -18.5t6 -8.5t2 -3t-11 -5q8 -31 16 -60.5t25.5 -53t47.5 -38t79 -14.5q61 0 135 27.5t153 68.5l-45 -53q-72 -29 -151.5 -54.5t-142.5 -27.5h-7q-16 0 -24 2t-16.5 5t-18.5 5t-29 2 q-12 14 -18 19.5t-11.5 8.5t-12.5 9t-19 27q-20 35 -21 76v6l-2 45l4 71l-6 7l-90 -54l6 -10l-18 -10q-19 -10 -45.5 -24.5t-58 -32t-58.5 -31.5zM387 416l74 45l-8 12q14 2 43.5 27.5t62.5 58.5t61.5 64.5t41.5 44.5q27 27 50 51t38 47q6 12 21 26.5t29.5 29t25 27.5 t5.5 23h23q0 8 19.5 37t49 68t64.5 87t64.5 95t49 91t19.5 79q0 16 -10 17.5t-33 3.5q-16 -23 -51 -49.5t-61 -51.5l-26.5 -26.5t-25.5 -30.5q-10 -18 -25.5 -28.5t-31.5 -24.5q-57 -59 -96 -116.5t-92 -119.5q-29 -35 -51.5 -64.5t-41 -57t-35 -56.5t-34.5 -61 q-8 -14 -27.5 -48t-40 -73t-36 -74t-15.5 -53z" />
<glyph unicode="m" horiz-adv-x="1171" d="M-10 76l49 57l4 2q41 23 79 51.5t77 55.5q45 31 71.5 61.5t73.5 52.5l21 -18l-146 -215l6 -4l29 8l-8 10q12 2 38.5 21.5t56.5 44t58.5 48t49.5 34.5q29 14 52 28.5t46 20.5q31 8 43 8t18 -3t13.5 -7t25.5 -6q-4 -10 -1 -15.5t7 -11.5t6.5 -15.5t-2.5 -25.5 q-4 -18 -14 -36.5t-14 -28.5q-6 -14 -19.5 -32t-26 -34t-19.5 -32.5t-1 -31.5q23 14 51.5 34t58 39.5t56.5 40t43 38.5q8 8 39 32.5t65.5 51.5t64.5 48.5t36 21.5q18 0 15 -13.5t-14 -30t-23.5 -31.5t-14.5 -20q-6 -12 -17.5 -45.5t-27.5 -56.5q2 -4 4 -3t2 2t0 -1v-12v-23 q0 -35 5 -46t14.5 -15t20.5 -8.5t26 -22.5q16 12 65 26.5t96 47.5q8 -10 11.5 -13.5t3.5 -15.5q0 -18 -29 -33.5t-65.5 -27t-69.5 -18.5t-41 -7q-20 0 -36.5 4t-39.5 27q-12 12 -16 19t-4 12.5t2 12.5t2 23q0 31 5 51.5t13 36t15.5 32t7.5 40.5q-16 0 -48 -25.5t-67 -57.5 t-70.5 -58.5t-60.5 -28.5l8 -10l-112 -53l-21 20q8 14 27.5 48t35 72t18.5 71.5t-22 48.5q-27 12 -59.5 -0.5t-65 -34t-60.5 -42t-44 -22.5l6 -14q-10 -2 -29.5 -16.5t-43 -35t-48 -42t-45 -35.5t-34 -17t-15.5 13q-2 12 19.5 41t46 61.5t44 62.5t13.5 46q-29 -14 -62.5 -38 t-68.5 -50.5t-70.5 -50t-68.5 -37.5z" />
<glyph unicode="n" horiz-adv-x="1118" d="M27 115q25 2 56.5 23.5t65 48t67.5 49t65 26.5l-5 12q25 12 60 39t72 51q38 22 74 34q13 4 24 4q21 0 39 -13q30 -24 30 -55q1 -6 -1 -14q-8 -40 -31 -81.5t-46.5 -75.5t-17.5 -46l-8 6l-29 -37q20 -10 54 15.5t71 61.5t71 67.5t52 33.5l-6 4l49 54l162 135 q27 0 32 -10.5t-1 -28t-18.5 -37t-20.5 -37.5q0 -2 -4 -19.5t-7.5 -39t-6.5 -39t-3 -19.5q0 -31 5.5 -59.5t19.5 -51t42 -38t75 -17.5l30 2q6 -2 15 -2l-47 -55q-25 -8 -58 -5t-63.5 17.5t-54 41t-29.5 67.5q-1 9 -1 20q0 25 7 55q10 42 23.5 79.5t23.5 64.5t8 33l-43 -23 l6 -8q-10 -2 -40.5 -27.5t-65.5 -57.5t-65.5 -61.5t-41.5 -39.5q-29 -29 -53 -52.5t-49 -44t-52.5 -41t-62.5 -42.5l-24 34q16 33 35.5 67t35.5 56q14 16 21.5 33.5t12.5 34t11.5 31t20.5 24.5l-14 23l14 30l-23 13h-13q-44 0 -70 -12q-30 -14 -51 -30t-37.5 -32t-39.5 -18 l7 -13q-12 -2 -45 -23.5t-68 -47t-63.5 -46t-32.5 -20.5h-6q-16 0 -24.5 9t-14.5 20z" />
<glyph unicode="o" horiz-adv-x="845" d="M-59 4l39 47q39 6 87 24.5t97 45t96 56.5t84 59q29 23 50.5 33t45.5 36q10 10 37 31.5t47 38.5q14 10 45 26.5t39 38.5q2 6 8.5 19.5t11.5 29t7 28t0 18.5q16 2 22.5 5t9.5 7t6 7t15 3q23 0 33 -34t10 -77t-9 -82.5t-26 -52.5q14 -33 27.5 -45t27 -18t30 -10.5 t38.5 -18.5q27 2 33 5t10 -25l-86 -2l-16 7q-15 7 -32 15t-33.5 14.5t-20.5 6.5q-10 0 -15.5 -9.5t0.5 -19.5q-27 -4 -34 -24.5t-21 -43.5q-8 -10 -28.5 -30.5l-30.5 -30.5q-25 -25 -69 -56.5t-89 -31.5h-6q-16 0 -26.5 12t-16.5 23v69.5t10 40.5q4 6 13.5 20.5t17.5 29 t15 28.5t7 21q-59 -39 -115.5 -78t-117.5 -78q-57 -35 -116.5 -50.5t-110.5 -27.5zM394 89v-5q0 -27 28 -27l24 2q20 0 54.5 23.5t66 57.5t56 68.5t28.5 59.5q-31 45 -39 75t-17 36t-29.5 -15.5t-76.5 -74.5q-10 -10 -33.5 -48t-41 -79t-20.5 -73zM650 418v-9q0 -9 1 -17 q2 -11 8.5 -24.5t20.5 -33.5q8 6 15 18.5t12.5 26.5t7.5 28.5t2 20.5q0 25 -1 36t-4 17t-11.5 13.5t-20.5 25.5q-16 -10 -22.5 -18t-6.5 -31v-8q0 -29 -1 -45z" />
<glyph unicode="p" horiz-adv-x="1036" d="M-68 -287q0 41 3.5 89t8.5 96.5t17 85.5q10 29 14.5 50t8.5 40q8 18 23.5 44.5t15.5 35.5q0 6 6 25.5t17 40t26.5 38.5t33.5 23q-4 6 4.5 16t20.5 21.5t25.5 21.5t23.5 14q23 16 54.5 35t41.5 29q18 0 44 6t51.5 12t50 12.5t41.5 6.5q8 0 35.5 -5.5t56.5 -11.5t52.5 -10 t27.5 -2q8 6 17.5 22.5t21.5 34t25.5 30.5t31.5 15l-6 7l27 26q-2 6 6 14.5t19 15.5t21.5 11t14.5 4q4 -16 -3 -27.5t-32 -15.5q6 -16 0 -20t-28 -6l8 -15q-14 0 -31.5 -14t-33 -33.5t-27 -39t-11.5 -29.5q8 0 20.5 -7.5t27 -17.5t25.5 -19.5t17 -13.5q18 -18 26.5 -28.5 t15 -17.5t11.5 -16.5t15 -25.5q20 -35 26.5 -60.5t2.5 -50t-16.5 -51t-30.5 -59.5l61 10l33 6q16 8 49 16.5t63 12.5q8 2 21.5 5t32.5 11l-4 -26q-16 -4 -60.5 -15.5t-90.5 -22.5t-82 -20.5t-38 -9.5l-104 -14q-8 -1 -17 -1q-37 0 -71 15q-41 19 -65.5 45.5t-29 53 t20.5 40.5q10 -27 42 -52t67 -42q29 -14 59.5 -13t77.5 1q14 16 23.5 22.5t19.5 26.5q6 10 7 15.5t1 8.5t2 8t8 15q-4 6 -8 17.5t-8 24.5t-7 23.5t-5 12.5q-14 16 -25 31q-10 10 -16.5 20t-6.5 12q-33 35 -63.5 51.5t-73.5 37.5l-194 -332q0 20 21.5 65t50 97.5t59 100.5 t49.5 75q-35 23 -67.5 29t-61.5 6h-33q-49 0 -101 -13.5t-102.5 -38t-94.5 -63.5t-77 -92q-10 -20 -22 -50t-23 -53q-10 -16 -20 -50t-12 -52q0 -16 -6.5 -22.5t-6.5 -26.5v-15.5t-1 -10.5t-2 -11t-3 -21q-8 -29 -9 -57.5t-1 -46.5q0 -47 6 -88t14 -101q6 -31 14.5 -54 t22.5 -52q8 -23 19.5 -30t22.5 -6t23.5 5t24.5 6q0 4 12.5 26t27 46.5t26.5 45t12 22.5q23 31 37 65.5t31 71.5q8 16 12 22.5t7 10.5t5 11t8 26q4 18 16.5 33.5t20.5 31.5q2 4 12.5 24.5t21.5 43t20.5 43t7.5 24.5l31 15q-10 -27 -16.5 -42.5t-18.5 -37.5q-2 -4 -9.5 -16.5 t-15.5 -28t-15 -29.5t-9 -21q-4 -20 -17.5 -43.5t-25.5 -42.5q-6 -6 -11.5 -17t-10.5 -24.5t-9 -25.5t-6 -21q-6 -18 -18.5 -41.5t-27 -47t-28.5 -45t-21 -40.5q0 -2 -8 -15t-17 -28.5t-18 -28.5l-8 -14q-16 -16 -23 -25t-15.5 -13.5t-19.5 -4.5h-34l-24 33l-29 115 q-16 29 -17.5 57.5t-1.5 75.5v59zM590 209v18h20v-18h-20z" />
<glyph unicode="q" horiz-adv-x="854" d="M-358 287v14q12 0 15 -1t5 -2t3 -3t9 -6l-18 -23q-6 8 -9 11.5t-4 4.5t-1 5zM-55 -680q4 41 20.5 82t44.5 70q14 16 24.5 37.5t22 44t25.5 43t37 36.5v19l188 272q-14 6 -29.5 4t-17.5 25q0 10 1 11t3 16l158 81l-8 15l32 37q-18 -10 -45.5 -27.5t-56.5 -35t-55.5 -31 t-42.5 -13.5t-21.5 7t-13.5 14l31 100l18 2l31 70l-6 4q-23 -14 -54.5 -30.5t-67.5 -33t-73 -32t-67 -23.5l4 27q20 8 28 10q47 16 94.5 37.5t106.5 48.5q12 6 15 7t5.5 1t5.5 2t17 12q4 2 17.5 9.5t21.5 11.5q18 10 30.5 16t21.5 12.5t18.5 13.5t25.5 19q12 10 36 25.5 t51.5 28t53 18.5t41.5 -2q-8 -10 -33.5 -25.5t-57 -32t-62.5 -34t-49 -31.5q-14 -10 -29.5 -17.5t-26.5 -15.5q-12 -10 -15 -21t-19 -28q-23 -20 -33 -46t-12 -54q20 -12 48.5 -4t56.5 25.5t50.5 40t32.5 38.5q27 14 49.5 44t45 62.5t45 63.5t48.5 49l13 -14l-246 -320 q2 -16 7 -21t12.5 -6t16.5 0t19 -3q14 -6 20.5 -9.5t10.5 -5.5t9 -4t20 -4q33 23 72.5 38t84.5 38q35 16 61.5 30.5t55.5 37.5l14 -27q-29 -16 -67.5 -37.5t-79.5 -40t-76 -32t-53 -13.5q14 -31 19 -56.5t10 -60.5q2 -16 -4.5 -35.5t-15.5 -38t-18.5 -34t-13.5 -23.5 q-2 -12 -20.5 -46t-42 -70.5t-48 -66.5t-38.5 -32l6 -4l-45 -59q-14 -4 -21.5 -10.5t0.5 -20.5l-110 -74l2 -8l-156 -65q-33 -2 -47 -4h-10q-7 0 -12 2q-7 2 -14 7t-25 17zM12 -631l29 -26l39 2q14 0 35.5 8t44 21.5t44 26.5t38.5 24q12 6 30.5 23t37 35.5t34.5 33t27 16.5 q-6 16 -1 20.5t25 6.5q-4 10 3.5 22t17.5 24.5t21.5 26t19.5 27.5q12 29 25.5 61.5t17.5 57.5q4 16 11 53q6 32 6 62v9q-1 34 -17.5 53t-59.5 -1q-31 -14 -57.5 -14t-46.5 -23q-29 -29 -42 -56.5t-34 -49.5q-10 -12 -31.5 -40t-43 -57.5t-41 -54.5t-25.5 -27l8 -12 q-4 -4 -16.5 -20.5t-24.5 -37t-23.5 -40t-15.5 -27.5q-10 -23 -16 -36t-9.5 -24t-5.5 -25.5t-4 -41.5zM276 -43l56 -4q0 16 6 18t22 2l-6 29l-16 -14l-10 6zM365 -31l43 -2l26 6l25 9q-12 20 -24.5 21t-33.5 11z" />
<glyph unicode="r" horiz-adv-x="829" d="M14 170q29 23 64 43t72 55q2 0 20 14.5t42 32t45.5 31.5t27.5 14q-2 2 5 17.5t18 34t21.5 36t14.5 25.5q23 29 41 50.5t47 47.5q12 9 28 13q2 0 4 1q13 0 9 -26q-2 -10 -10 -20.5t-17 -28.5q-6 -10 -21 -23.5t-29.5 -27t-26 -26.5t-11.5 -23q0 -18 4.5 -24.5t7.5 -8.5 t5 -3t-2 -14q23 0 34 -6t20 -9t19.5 2t32.5 24q6 6 17.5 18t26 23.5t27.5 19.5t21 8h7q25 0 18.5 -16t-27 -37.5t-45 -40t-35.5 -20.5q-41 -16 -61 -53t-20 -80q0 -82 43 -114t105 -32t133 23.5t126 52.5l4 -25q-35 -16 -71.5 -31.5t-59.5 -23.5q-33 -6 -51.5 -12 t-34.5 -10.5t-37.5 -6.5t-58.5 -2q-51 0 -87 18.5t-67 71.5q6 25 8 39.5t2 24.5t2.5 19.5t12.5 27.5q4 14 15 38.5t22 43.5q-18 8 -31.5 11t-25 6t-23.5 13.5t-29 34.5q-29 -18 -66.5 -46.5t-66.5 -51.5q-33 -29 -63.5 -54.5t-63.5 -51.5l-8 -4t-10 -7z" />
<glyph unicode="s" horiz-adv-x="704" d="M-16 117q2 2 3 2t3 2q41 23 66.5 36t56.5 31q8 6 24.5 16.5t34.5 22t35.5 22.5t30.5 17q37 20 67.5 39t65.5 41q39 27 75.5 42t55.5 28q25 -16 34 -25.5t10 -16.5t-5 -17.5t-13 -26.5q-10 -35 -21 -52.5t-32 -46.5q-12 -16 -30.5 -37.5l-37 -43t-34 -41t-17.5 -27.5 l66 -10l45 2q31 2 65.5 10t70.5 20.5t67.5 25.5t54.5 28l-10 -35l-4 -4q-18 -8 -51 -20.5t-70 -26t-73 -22.5t-56 -11l-74 -4q-12 0 -30.5 2t-36 2t-32 -6t-20.5 -25h-22q-10 -2 -13.5 -3t-9.5 -5q-10 14 -18 20.5t-15.5 11.5t-12.5 14t-5 28q-4 29 -1 57.5t7 38.5 q41 -23 66.5 -43.5t45 -28.5t41 3.5t56.5 54.5q12 14 32.5 47t36 65.5t15.5 57t-29 24.5q-25 0 -52.5 -15.5t-55 -34.5t-54 -38.5t-47.5 -28.5q-18 -8 -44.5 -24t-56.5 -33.5t-57.5 -35t-45.5 -29.5q-12 -8 -41 -23zM186 82q10 -23 14.5 -34t22.5 -5l15 -14l8 14l22 2 q-2 2 -11 9t-19.5 14.5t-18.5 13.5t-10 6q-8 0 -14.5 -3t-8.5 -3z" />
<glyph unicode="t" horiz-adv-x="835" d="M14 135l11 39q20 12 58 34.5t78 47.5t72.5 47.5t45.5 34.5q25 27 59.5 53.5t62.5 54.5q31 29 55.5 55.5t53.5 55.5q12 12 40 48t55.5 77t49 79t21.5 56l-119 2l-61 -2l-25 -2l-96 6l-92 -2l-238 4l-8 11l41 53l131 -13l65 3q2 0 14.5 -3.5t22.5 -3.5h72l246 -14 q31 -2 49 1t30.5 11.5t20.5 20.5t19 31q8 12 29.5 36.5t42 52t34.5 51t10 36.5h23q-6 16 1 22t32 8q-8 20 14 40t39 32l24 -22q-10 -23 -33.5 -67t-50 -87t-53 -76t-41.5 -35q6 -12 5 -15t-4 -3t-6 -3t-3 -18q0 -10 13.5 -12t25.5 -4l63 4l95 2l49 -2l37 -2l41 4l8 -2l39 2 l39 -2q12 0 20 2t14.5 1t12.5 -6t16 -19l-16 -15l-103 2l-30 2h-23l-55 -4l-33 2l-8 2l-39 -4l-25 2l-39 -2l-71 2l-70 -2q-14 -10 -31.5 -28.5t-35 -40t-34 -44t-28.5 -40.5q-16 -23 -30.5 -41.5t-26.5 -34.5q-14 -16 -21.5 -25.5t-11.5 -17.5t-9 -17.5t-16 -27.5 q-16 -25 -40.5 -72t-48 -99t-41 -102.5t-17.5 -80.5v-25l4 -45q33 -12 39 -19.5t8 -10.5t11.5 -3h48.5q86 0 163.5 32t178.5 87l-9 -35q-37 -18 -73.5 -36.5t-71.5 -37.5q-80 -41 -155.5 -53t-159.5 -14q-8 14 -16.5 22.5l-15.5 15.5t-11.5 16t-4.5 26v69q0 37 20.5 86 t47.5 95.5t49.5 84t22.5 52.5l-29 -8q2 -10 -23.5 -38t-61.5 -57.5t-70.5 -53t-49.5 -26.5l6 -16q-10 0 -36.5 -14.5t-58.5 -35t-64.5 -40.5t-55.5 -35z" />
<glyph unicode="u" horiz-adv-x="1077" d="M-14 127l8 33l4 2q12 6 35.5 22.5t49.5 35t49.5 34.5t33.5 27q10 8 32.5 29.5t47 43t44 37t23.5 10.5l-4 -26q-14 -2 -36.5 -30t-44 -64.5t-37 -75.5t-15.5 -66q2 -53 33 -69q28 -15 62 -15h8h44t27 3t24.5 9.5t37.5 18.5q10 6 27.5 14.5t36 18.5t34.5 20.5t25 18.5 q18 18 52 37.5t60 42.5q20 20 45 49.5t58 34.5q-4 8 4 21t21 26.5t26.5 26t21.5 18.5l19 -37q-12 -2 -28.5 -17.5t-30 -34t-23.5 -37t-12 -24.5q-10 -18 -17.5 -32.5t-11.5 -26.5t-6 -28t-2 -36q-1 -68 35 -89q30 -18 72 -18q8 0 16 1q52 4 113 27.5t112 46.5v-25 q-84 -39 -148.5 -63.5t-136.5 -24.5q-33 0 -46 2t-21.5 7t-19.5 15.5t-38 28.5l6 70q2 27 8.5 42t12.5 27.5t11 24.5t7 31q-23 -10 -49.5 -32t-53 -44.5t-52 -38.5t-45.5 -18l8 -15q-8 -2 -26.5 -10t-38 -18.5t-37 -19.5t-25.5 -13q-29 -10 -62.5 -16.5t-50.5 -16.5h-36 t-24.5 1t-21.5 5t-22 12q-20 10 -28.5 18.5t-9.5 15.5t1 16.5t2 21.5q0 53 13.5 85t39.5 71l-53 -19l8 -12q-6 0 -25.5 -12t-43 -27.5t-45 -30t-31.5 -20.5z" />
<glyph unicode="v" horiz-adv-x="878" d="M-37 80v22q33 16 55.5 26.5t26.5 8.5v23q27 2 67 31.5t78.5 64.5t71.5 63.5t49 30.5q-8 16 -2 20.5t29 8.5q-2 -23 -24.5 -52.5t-49 -65.5t-48 -75t-21.5 -82q0 -6 1 -16t6 -20.5t13 -18.5t21 -8h20q29 0 65.5 15.5t73.5 37t71 44t56 38.5q41 27 57.5 48.5t22.5 56.5 q4 35 26.5 64.5t39.5 55.5q25 35 56.5 59.5t51.5 26.5h2q16 -1 12 -23q-4 -24 -49 -87q-12 -18 -21 -29.5t-17.5 -22t-18.5 -22.5t-29 -31q-18 -18 -11 -32.5t23.5 -23.5t35 -17.5t22.5 -14.5q16 12 50 17.5t65 15.5q23 10 38 15.5t33 15.5l-47 -45q-33 -12 -78 -25.5 t-69 -13.5h-47q-18 0 -40 19.5t-38 27.5l-33 -25l6 -8q-12 -2 -52 -29.5t-90 -60.5t-104.5 -60.5t-97.5 -27.5h-6l-49 6q4 12 0 15.5t-10 5.5t-12.5 8t-4.5 24q0 14 1 20.5t3 10.5t4.5 10t6.5 21q2 6 10 24.5t18 36.5q10 23 25 47q-6 2 -21.5 -7t-34 -23.5t-36 -28.5 t-25.5 -20q-29 -20 -60.5 -37t-66.5 -33zM639 295l106 100q-4 10 -4 19.5t-12 9.5q-10 0 -25.5 -12.5t-30 -32t-24.5 -42t-10 -42.5z" />
<glyph unicode="w" horiz-adv-x="1052" d="M33 41q6 25 9 42t8 32.5t14.5 32t27.5 38.5q4 6 16.5 22.5t27 35t26.5 36t16 25.5q-6 0 -21.5 -7t-37 -17.5t-43 -21.5t-39.5 -19l39 39v2q37 18 61.5 34.5t46 31.5t44 31.5t53.5 39.5q6 -16 3 -25.5t-26 -11.5q2 -6 -10 -25.5t-30.5 -42t-36 -43t-25.5 -30.5 q-25 -39 -37.5 -85t-26.5 -69q10 -14 14.5 -23.5t10.5 -13.5t18 -3t41 7q25 4 49.5 16.5t40.5 26.5q4 4 28.5 20.5t53.5 34t52.5 33t27.5 15.5l-8 14q20 2 46 26.5t53.5 54.5t53 54.5t43.5 26.5q-4 -35 -32.5 -58.5t-42.5 -54.5q-10 -25 -23.5 -55.5t-21.5 -59.5 q-5 -29 -5 -51q0 -18 4 -32q9 -28 32.5 -41t57 -14t70.5 -1v15q33 4 64 29.5t57.5 57t47 59.5t34.5 38l25 90l-9 -6l-61 69q0 27 1 45.5t5 34t14.5 27.5t30.5 27q10 -29 27.5 -48.5t17.5 -54.5v-8q0 -33 7.5 -51.5t21.5 -27.5t34.5 -11t45.5 -2h8q53 0 102 18l-26 -28 q-23 -6 -45.5 -10.5t-44.5 -4.5h-8l-103 15l-43 -74l8 -12l-51 -72l-65 -68l-7 4l9 -12q-16 -4 -40 -20.5t-38 -28.5q-18 -12 -40 -12t-38 -21q-6 4 -6 5v1h-2h-15q-10 0 -23 -1t-28 -1q-16 0 -21 1t-7 4t-6.5 6.5t-22.5 5.5l-21 43q4 29 0 54.5t7 47.5q10 23 24 52.5 t25 52.5q-10 0 -56.5 -38t-108 -82t-128 -82t-115.5 -38h-22q-20 0 -23.5 14.5t-13.5 30.5zM836 428l38 -66l23 17l-18 78l-27 6z" />
<glyph unicode="x" horiz-adv-x="673" d="M16 8v2v13q0 4 27 23.5t59.5 43t62.5 44t38 26.5q31 25 53.5 38t34.5 26.5t11 32.5t-19 56q-16 33 -42 37t-55.5 -5t-57.5 -24.5t-48 -21.5l-62 -18l21 22v8q61 25 124.5 51.5t135.5 28.5l27 -29q-4 -6 -4 -8t-3 -12l-8 -100l6 -6l236 155q6 -14 -15.5 -31.5t-52 -37 t-58.5 -38t-32 -36.5h-20q-2 0 -11.5 -5t-19.5 -11.5t-18.5 -11.5t-10.5 -7q-12 -12 -12 -30.5t2 -28.5t10.5 -23.5t15.5 -27t13 -23.5t4 -14q12 -2 18.5 -6.5t12.5 -9.5t16.5 -9t32.5 -6h29.5t29.5 2q51 6 82 15t76 30q12 2 23 10l8 -18q-2 0 -10 -4q-66 -23 -132.5 -47.5 t-156.5 -24.5q-18 0 -31.5 6t-26 15.5t-21.5 17.5t-17 8q12 14 14 39l-2 61q0 6 -5 21.5t-7 19.5l-172 -120l2 -9l-88 -55q-4 6 -5 6h-2z" />
<glyph unicode="y" horiz-adv-x="702" d="M-10 86q29 14 51 26.5t51 26.5q12 6 32.5 21.5l41 31t38 26.5t25.5 13l-8 13l160 133l4 -8q-4 -43 -39 -50q4 -12 -18.5 -37.5t-46 -59.5t-32.5 -76q-2 -10 -2 -20q0 -32 23 -67q18 2 33.5 2t31 2.5t31 8.5t33.5 18t32.5 18.5t37.5 20.5q14 10 30.5 20.5t32.5 20.5 q14 8 48 38t70 64.5t63.5 66.5t29.5 46l33 14l4 -14q-18 -41 -52 -65.5t-58 -59.5q-18 -25 -42 -60.5t-53 -64.5q-6 -6 -19 -23.5t-27.5 -38t-27 -40t-16.5 -25.5q-8 -16 -23.5 -31.5t-25.5 -31.5q-14 -23 -18 -32t-21 -32q-10 -14 -37.5 -56t-64.5 -98.5t-76 -119 t-70.5 -117.5t-50 -96t-14.5 -51l-35 -7v5q0 22 25 73q30 58 71 124.5t81 126t55 83.5q20 35 32.5 53.5t32.5 53.5q18 29 37.5 47t34.5 47q12 25 31.5 50.5t40 51t39 52t30.5 55.5q-14 -2 -40.5 -17.5t-55.5 -36t-55.5 -38t-38.5 -21.5q-16 -6 -39 -15.5t-47.5 -14.5t-50 -3 t-50.5 19q4 8 7.5 23.5t4.5 30.5t2 26.5t1 13.5q4 20 19 37.5t20 40.5l-21 8v-14q-6 0 -22.5 -10.5t-35 -23.5t-36 -25.5t-29.5 -18.5q-33 -16 -52.5 -29.5t-41.5 -23.5z" />
<glyph unicode="z" horiz-adv-x="1024" d="M-45 18q6 8 32.5 18.5t58.5 21t61.5 19.5t39.5 15q59 29 104.5 53.5t92.5 53.5q27 16 78 50t107.5 66.5t106.5 57t73 24.5h6q31 0 48 -6t29.5 -17.5t21.5 -26.5t24 -36q0 -49 -19.5 -85t-42 -60.5t-41 -39.5t-18.5 -24q0 -10 18.5 -20t43 -22.5t50 -28t39.5 -35.5l93 27 l16 -19l-80 -16q-2 -6 -4 -12.5t-2 -8.5q0 -27 11 -55q8 -21 8 -47q0 -9 -1 -19q-2 -18 -3 -30.5t-4 -23.5t-7 -22.5t-12 -29.5q-8 -16 -9.5 -21.5t-13.5 -21.5q-10 -12 -12 -16.5t-2 -6.5v-6t-6 -16q-12 -23 -33 -44.5t-37 -23.5q6 -10 -10.5 -33.5t-40 -50t-47 -50 t-33.5 -36.5q-16 -14 -44 -32.5t-56.5 -36t-50 -31.5t-25.5 -21h-35l-14 -20q-24 0 -48 -3q-14 -2 -28 -2q-8 0 -18 1q-22 2 -43 11t-37 34q6 29 7 45t3 29.5t6 33t16 54.5t29.5 68.5t46.5 64.5q16 16 24.5 32.5t20.5 36.5q6 14 26.5 34t33.5 30q8 8 26.5 24.5t40 34 t41 31.5t29.5 18q0 -10 -17.5 -29.5t-41 -41t-45 -41t-31.5 -29.5q-41 -43 -59.5 -80t-45.5 -71q-6 -10 -15 -33t-16.5 -47.5t-12.5 -46t-5 -31.5q0 -23 7 -44.5t21.5 -34.5t34 -17t42.5 12h36q12 8 45 27.5t66 42t56.5 43t19.5 32.5q23 2 30 6.5t3 18.5l30 27l-6 8 q14 2 33.5 22.5t37 46t31 51t19.5 35.5q29 57 39 96.5t10 77.5q0 18 3 22.5t-3 23.5q-2 8 -12 28.5t-19 20.5q-31 0 -60.5 -13.5t-56 -30t-52 -30.5t-46.5 -14l2 18l185 98q-4 16 -22.5 33t-42 28t-47 14t-38.5 -5q-29 -12 -48 -23.5t-37.5 -18.5t-42 -11t-60.5 -4l-33 14 l-2 35q14 2 16 5t2 6t3.5 7t17.5 8q23 6 37 9.5t26 7.5q6 2 23.5 4t35 5t31 5t15.5 2q18 0 31.5 1t25.5 6t24.5 17.5t26.5 35.5q15 23 29 49q13 23 12 62v11q-6 10 -11 20.5t-13 19t-24.5 13.5t-45.5 5h-20q-33 0 -82 -21.5t-101.5 -50.5t-99.5 -58.5t-74 -47.5 q-27 -16 -76 -44t-103 -52q-54 -26 -102 -40q-26 -8 -46 -7q-16 0 -27 5zM467 20l27 -12q33 0 69.5 13.5t52.5 35.5q-19 2 -38 2l-48 -3q-43 -5 -63 -36z" />
<glyph unicode="&#x2000;" horiz-adv-x="887" />
<glyph unicode="&#x2001;" horiz-adv-x="1775" />
<glyph unicode="&#x2002;" horiz-adv-x="887" />
<glyph unicode="&#x2003;" horiz-adv-x="1775" />
<glyph unicode="&#x2004;" horiz-adv-x="591" />
<glyph unicode="&#x2005;" horiz-adv-x="443" />
<glyph unicode="&#x2006;" horiz-adv-x="295" />
<glyph unicode="&#x2007;" horiz-adv-x="295" />
<glyph unicode="&#x2008;" />
<glyph unicode="&#x2009;" horiz-adv-x="355" />
<glyph unicode="&#x200a;" horiz-adv-x="98" />
<glyph unicode="&#x202f;" horiz-adv-x="355" />
<glyph unicode="&#x205f;" horiz-adv-x="443" />
<glyph unicode="&#x25fc;" horiz-adv-x="389" d="M0 0v389h389v-389h-389z" />
</font>
</defs>
</svg>
